<?xml version="1.0" standalone="no"?>
<!DOCTYPE svg PUBLIC "-//W3C//DTD SVG 20010904//EN"
 "http://www.w3.org/TR/2001/REC-SVG-20010904/DTD/svg10.dtd">
<svg version="1.0" xmlns="http://www.w3.org/2000/svg"
 width="500.000000pt" height="500.000000pt" viewBox="0 0 500.000000 500.000000"
 preserveAspectRatio="xMidYMid meet">

<g transform="translate(0.000000,500.000000) scale(0.100000,-0.100000)"
fill="#000000" stroke="none">
<path d="M1777 3003 c-4 -3 -7 -80 -7 -170 0 -156 1 -163 20 -163 17 0 20 7
20 49 0 51 31 108 47 85 5 -5 28 -38 52 -72 33 -46 50 -62 68 -62 22 0 20 5
-33 78 -31 42 -60 82 -64 87 -5 6 16 43 46 84 57 78 63 91 39 91 -8 0 -46 -41
-83 -92 l-67 -92 -3 92 c-2 67 -6 92 -16 92 -7 0 -16 -3 -19 -7z"/>
<path d="M2139 2989 c-9 -18 -109 -306 -109 -316 0 -2 8 -3 18 -3 13 0 22 12
31 40 l12 41 66 -3 c66 -3 66 -3 78 -38 10 -31 45 -56 45 -33 0 24 -108 327
-117 330 -7 3 -17 -6 -24 -18z m49 -131 l20 -68 -49 0 c-27 0 -49 3 -49 6 0
24 44 144 50 137 5 -4 17 -38 28 -75z"/>
<path d="M2330 2841 l0 -171 91 0 c81 0 90 2 87 18 -3 14 -16 18 -70 20 l-67
3 -3 147 c-3 131 -5 147 -20 150 -17 3 -18 -10 -18 -167z"/>
<path d="M2550 3001 c0 -6 21 -53 47 -104 43 -85 46 -97 44 -159 -1 -62 0 -68
19 -68 18 0 20 6 20 60 0 50 8 75 50 166 28 59 50 108 50 110 0 2 -8 4 -19 4
-14 0 -29 -22 -57 -86 l-39 -85 -40 83 c-24 49 -48 84 -58 86 -9 2 -17 -1 -17
-7z"/>
<path d="M2915 3000 c-4 -6 -31 -83 -60 -170 -48 -145 -52 -160 -35 -160 14 0
23 12 31 40 l12 40 69 0 c53 0 68 -3 68 -15 0 -28 23 -65 41 -65 16 0 11 20
-39 167 -54 157 -71 189 -87 163z m37 -118 c9 -32 20 -66 24 -75 5 -15 -1 -17
-46 -17 -39 0 -51 3 -47 13 3 7 13 41 22 75 10 34 20 62 24 62 3 0 14 -26 23
-58z"/>
<path d="M3107 3004 c-4 -4 -7 -81 -7 -171 0 -156 1 -163 20 -163 18 0 20 8
22 127 l3 127 73 -127 c40 -70 80 -127 88 -127 12 0 14 29 14 170 0 143 -2
170 -15 170 -12 0 -15 -23 -17 -130 l-3 -130 -75 127 c-72 122 -88 141 -103
127z"/>
<path d="M3400 2841 c0 -165 1 -171 20 -171 20 0 20 5 18 167 -3 151 -5 168
-20 171 -17 3 -18 -10 -18 -167z"/>
<path d="M1777 2614 c-4 -4 -7 -81 -7 -171 l0 -163 96 0 c86 0 95 2 92 18 -3
14 -16 18 -76 20 l-72 3 0 59 c0 33 3 59 8 59 4 -1 31 -1 60 0 39 1 52 5 52
16 0 12 -13 15 -60 15 l-60 0 0 55 0 55 76 0 c66 0 75 2 72 18 -3 14 -17 17
-89 20 -47 1 -88 0 -92 -4z"/>
<path d="M2037 2614 c-4 -4 -7 -81 -7 -171 0 -156 1 -163 20 -163 18 0 20 8
22 124 l3 124 70 -121 c100 -172 105 -170 105 43 0 158 -1 171 -17 168 -16 -3
-19 -19 -23 -126 l-5 -124 -70 123 c-67 118 -83 138 -98 123z"/>
<path d="M2373 2600 c-42 -25 -56 -75 -52 -179 4 -79 6 -84 37 -112 42 -38
107 -41 147 -6 26 22 44 76 45 130 0 26 -2 27 -55 27 -48 0 -55 -2 -55 -20 0
-16 7 -20 36 -20 l37 0 -6 -37 c-11 -70 -76 -95 -122 -48 -23 22 -25 32 -25
115 0 78 3 93 21 111 21 21 69 23 110 5 11 -5 19 -2 23 9 4 12 -4 20 -29 31
-46 19 -74 18 -112 -6z"/>
<path d="M2620 2451 c0 -145 2 -171 15 -171 13 0 15 24 15 160 0 88 0 163 1
168 0 4 -7 8 -15 10 -14 3 -16 -18 -16 -167z"/>
<path d="M2730 2451 c0 -163 1 -171 20 -171 18 0 20 8 22 125 l3 124 71 -122
c99 -172 104 -170 104 43 0 158 -1 171 -17 168 -16 -3 -19 -19 -23 -126 l-5
-124 -70 124 c-100 174 -105 172 -105 -41z"/>
<path d="M3030 2450 l0 -170 90 0 c83 0 90 2 90 20 0 17 -8 19 -72 22 l-73 3
1 35 c3 82 -1 76 57 77 40 0 53 4 55 16 3 14 -6 17 -51 17 -35 0 -56 5 -59 13
-3 10 -3 49 1 90 1 4 33 7 71 7 63 0 70 2 70 20 0 19 -7 20 -90 20 l-90 0 0
-170z"/>
<path d="M3289 2593 c-1 -44 -1 -213 0 -265 l1 -48 90 0 c83 0 90 1 90 20 0
11 -3 19 -7 19 -5 -1 -39 -1 -76 0 l-68 1 3 58 3 57 58 3 c42 2 57 7 57 17 0
12 -14 15 -60 15 l-60 0 0 55 0 55 75 0 c68 0 75 2 75 20 0 19 -7 20 -90 20
l-90 0 -1 -27z"/>
<path d="M3548 2614 c-5 -4 -8 -81 -8 -171 0 -156 1 -163 20 -163 18 0 20 7
20 65 l0 65 38 0 c38 0 39 -1 67 -65 20 -47 32 -65 46 -65 24 0 24 -4 -6 64
-30 68 -31 78 -6 100 11 10 23 31 26 46 8 35 -16 95 -44 110 -26 14 -143 25
-153 14z m142 -54 c25 -25 26 -72 2 -93 -10 -9 -40 -20 -65 -23 l-47 -7 0 72
0 71 45 0 c32 0 51 -6 65 -20z"/>
<path d="M3820 2450 c0 -144 2 -170 15 -170 13 0 15 26 15 170 0 144 -2 170
-15 170 -13 0 -15 -26 -15 -170z"/>
<path d="M3930 2450 c0 -165 1 -170 21 -170 19 0 20 5 19 108 -1 59 -2 116 -1
127 1 11 33 -36 74 -108 101 -178 107 -176 107 44 0 157 -1 170 -17 167 -16
-3 -19 -19 -23 -128 l-5 -125 -73 128 c-41 70 -80 127 -88 127 -12 0 -14 -30
-14 -170z"/>
<path d="M4285 2611 c-47 -20 -60 -49 -64 -142 -4 -108 2 -133 36 -165 47 -43
145 -26 171 31 7 14 12 48 12 75 l0 50 -50 0 c-43 0 -50 -3 -50 -20 0 -16 7
-20 35 -20 40 0 43 -11 21 -64 -22 -53 -86 -59 -125 -12 -8 9 -12 48 -12 101
-1 106 14 135 67 135 19 0 44 -4 54 -10 13 -7 21 -6 30 5 10 13 7 17 -23 30
-40 16 -71 18 -102 6z"/>
<path d="M330 2345 l0 -105 590 0 590 0 0 105 0 105 -590 0 -590 -1 0 -104z"/>
<path d="M330 2070 l0 -110 590 0 590 0 0 110 0 110 -590 0 -590 0 0 -110z"/>
<path d="M1744 1959 c-3 -6 -1 -16 5 -22 9 -9 11 -8 6 5 -4 11 0 18 12 21 15
4 16 5 1 6 -9 0 -20 -4 -24 -10z"/>
<path d="M1823 1930 c0 -25 2 -35 4 -22 2 12 2 32 0 45 -2 12 -4 2 -4 -23z"/>
<path d="M1954 1956 c-9 -24 0 -61 16 -62 9 0 10 1 3 3 -20 7 -16 61 5 66 16
4 16 5 -1 6 -10 0 -20 -5 -23 -13z"/>
<path d="M2030 1930 c0 -35 3 -40 23 -39 16 1 18 2 5 6 -12 3 -18 14 -18 33 0
19 6 30 18 33 13 4 11 5 -5 6 -20 1 -23 -4 -23 -39z"/>
<path d="M2163 1963 c21 -6 22 -26 2 -43 -22 -18 -18 -30 8 -29 18 1 18 2 4 6
-17 4 -18 6 -2 24 20 22 13 49 -12 48 -17 -1 -17 -2 0 -6z"/>
<path d="M2235 1961 c-3 -7 0 -8 9 -5 12 5 16 -1 16 -25 0 -34 -13 -41 -29
-13 -6 9 -10 13 -11 7 0 -21 18 -38 35 -32 11 5 15 16 13 39 -3 32 -21 48 -33
29z"/>
<path d="M2304 1946 c-8 -35 2 -58 23 -54 25 5 25 71 1 76 -12 2 -19 -5 -24
-22z m36 -16 c0 -20 -5 -30 -15 -30 -15 0 -21 40 -8 53 14 15 23 6 23 -23z"/>
<path d="M2384 1946 c-8 -35 2 -58 23 -54 25 5 25 71 1 76 -12 2 -19 -5 -24
-22z m36 -16 c0 -20 -5 -30 -15 -30 -15 0 -21 40 -8 53 14 15 23 6 23 -23z"/>
<path d="M1861 1923 c1 -37 1 -38 8 -8 l8 30 13 -27 c18 -39 30 -35 29 10 -1
32 -2 34 -8 12 l-7 -25 -12 23 c-19 33 -32 27 -31 -15z"/>
<path d="M1775 1918 c4 -11 0 -18 -12 -21 -15 -4 -16 -5 -1 -6 22 -1 33 18 19
32 -9 9 -11 8 -6 -5z"/>
</g>
</svg>
