<?xml version="1.0" encoding="UTF-8" standalone="no"?>
<!-- Created with Inkscape (http://www.inkscape.org/) -->

<svg
   xmlns:dc="http://purl.org/dc/elements/1.1/"
   xmlns:cc="http://creativecommons.org/ns#"
   xmlns:rdf="http://www.w3.org/1999/02/22-rdf-syntax-ns#"
   xmlns:svg="http://www.w3.org/2000/svg"
   xmlns="http://www.w3.org/2000/svg"
   xmlns:sodipodi="http://sodipodi.sourceforge.net/DTD/sodipodi-0.dtd"
   xmlns:inkscape="http://www.inkscape.org/namespaces/inkscape"
   width="143.68626mm"
   height="188.87091mm"
   viewBox="0 0 509.12456 669.22763"
   id="svg2"
   version="1.1"
   inkscape:version="0.91 r13725"
   sodipodi:docname="Seagull.svg">
  <defs
     id="defs4" />
  <sodipodi:namedview
     id="base"
     pagecolor="#ffffff"
     bordercolor="#666666"
     borderopacity="1.0"
     inkscape:pageopacity="0.0"
     inkscape:pageshadow="2"
     inkscape:zoom="0.63476244"
     inkscape:cx="223.30933"
     inkscape:cy="324.7701"
     inkscape:document-units="px"
     inkscape:current-layer="layer1"
     showgrid="false"
     fit-margin-top="0"
     fit-margin-left="0"
     fit-margin-right="0"
     fit-margin-bottom="0"
     inkscape:window-width="1600"
     inkscape:window-height="837"
     inkscape:window-x="-8"
     inkscape:window-y="-8"
     inkscape:window-maximized="1" />
  <metadata
     id="metadata7">
    <rdf:RDF>
      <cc:Work
         rdf:about="">
        <dc:format>image/svg+xml</dc:format>
        <dc:type
           rdf:resource="http://purl.org/dc/dcmitype/StillImage" />
        <dc:title></dc:title>
      </cc:Work>
    </rdf:RDF>
  </metadata>
  <g
     inkscape:label="Layer 1"
     inkscape:groupmode="layer"
     id="layer1"
     transform="translate(-148.73792,-181.72352)">
    <g
       id="g8312">
      <path
         inkscape:connector-curvature="0"
         id="path8307"
         d="M 403.3002,302.04366 A 252.49509,302.72247 0 0 0 150.80559,604.7662 252.49509,302.72247 0 0 0 253.46874,847.99363 l 299.67374,0 A 252.49509,302.72247 0 0 0 655.79481,604.7662 252.49509,302.72247 0 0 0 403.3002,302.04366 Z"
         style="color:#000000;clip-rule:nonzero;display:inline;overflow:visible;visibility:visible;opacity:1;isolation:auto;mix-blend-mode:normal;color-interpolation:sRGB;color-interpolation-filters:linearRGB;solid-color:#000000;solid-opacity:1;fill:#806600;fill-opacity:1;fill-rule:nonzero;stroke:#000000;stroke-width:4.13534355;stroke-linecap:round;stroke-linejoin:round;stroke-miterlimit:4;stroke-dasharray:none;stroke-dashoffset:0;stroke-opacity:1;color-rendering:auto;image-rendering:auto;shape-rendering:auto;text-rendering:auto;enable-background:accumulate" />
      <g
         transform="translate(433.23294,67.741878)"
         id="g8290">
        <path
           style="fill:#e6e6e6;fill-rule:evenodd;stroke:none;stroke-width:1px;stroke-linecap:butt;stroke-linejoin:miter;stroke-opacity:1"
           d="m -168.567,308.77693 -17.32932,88.22199 c -19.7445,14.72997 -37.86258,22.53035 -44.78076,38.86361 -12.30899,72.50962 69.9548,35.53103 116.53708,238.48471 6.85383,29.86137 14.501736,69.66656 13.22054,104.3589 l 159.654052,0.22302 12.158071,-25.89153 c -6.065544,-0.75819 9.171787,33.21856 15.419037,22.77479 2.595764,-4.33944 -3.505855,-28.10346 5.687248,-60.86066 2.042185,-7.27679 -15.247102,-20.23216 -7.70836,-17.917 6.911907,2.12266 6.639254,-16.3393 3.380002,-24.51236 5.803627,-7.71796 3.714547,-18.28944 3.714547,-18.28944 -11.705583,-3.07051 -26.53499,-5.59926 -48.849539,-14.6236 2.489315,-9.9504 -5.6804,-75.4013 -13.941102,-86.82816 C -8.3867374,501.6258 -2.4314816,528.74937 -2.4314816,528.74937 30.702997,599.92288 -2.0861196,681.81153 -12.60314,730.98213 -53.905902,524.05965 -1.386861,518.9962 6.3015701,417.47902 L -36.234028,382.82038 c -18.043368,-8.12465 -33.029507,-8.7638 -55.214206,-29.28155 14.373106,21.99959 16.455452,40.78707 0.9586,48.40483 -13.061256,-0.86797 -18.695716,-9.94834 -31.862706,-24.71734 -11.63596,-19.17725 -18.34,-36.01833 -9.08445,-45.29961 11.81871,-7.88862 25.38771,6.25388 33.85679,14.09363 -10.73536,-27.71563 -15.54003,-48.19876 7.716588,-43.45064 -7.807999,-9.24604 -12.435358,-29.90066 -40.290428,-19.39525 z"
           id="path8283"
           inkscape:connector-curvature="0"
           sodipodi:nodetypes="cccscccssscccscccccccccccc" />
        <path
           style="color:#000000;clip-rule:nonzero;display:inline;overflow:visible;visibility:visible;opacity:1;isolation:auto;mix-blend-mode:normal;color-interpolation:sRGB;color-interpolation-filters:linearRGB;solid-color:#000000;solid-opacity:1;fill:#fff6d5;fill-opacity:1;fill-rule:nonzero;stroke:none;stroke-width:1.03768373;stroke-linecap:round;stroke-linejoin:round;stroke-miterlimit:4;stroke-dasharray:none;stroke-dashoffset:0;stroke-opacity:1;color-rendering:auto;image-rendering:auto;shape-rendering:auto;text-rendering:auto;enable-background:accumulate"
           d="m -98.080078,301.99609 c -5.109802,-0.0143 -10.176412,7.49168 -9.698342,12.40255 -0.0392,9.63573 4.11261,16.57181 7.856545,25.35331 5.717887,9.48746 12.920685,18.35489 21.988281,24.82032 1.707778,1.12194 4.498584,3.38721 6.289063,1.15039 2.04719,-1.80602 2.259488,-6.1302 -0.941407,-6.77149 -5.347656,5.6211 -4.277793,-16.47781 2.677735,-8.28711 0.580549,1.49248 2.57727,2.85411 3.851562,1.26367 3.077306,-3.01908 6.351203,-6.15598 8.269532,-10.05468 0.343282,-5.18128 -3.611989,-9.3645 -5.990235,-13.61914 -6.92586,-10.99042 -16.543925,-21.28288 -29.189453,-25.40821 -1.662193,-0.46214 -3.376024,-0.89037 -5.113281,-0.84961 z m -26.550782,28.0625 c -5.51231,-0.0948 -10.55785,4.8261 -10.13281,10.42969 -0.60249,12.486 5.22926,24.21809 11.87695,34.41016 6.73246,9.59258 14.68473,18.88588 25.134767,24.51758 2.676176,1.25123 5.841182,2.36153 8.753906,1.52929 2.239466,-4.98795 5.341198,-9.54852 7.677735,-14.47265 1.478413,-6.74012 -1.082238,-13.47225 -4.341797,-19.28321 -6.518642,-11.7057 -14.596011,-22.79853 -24.861331,-31.49804 -4.01974,-3.10649 -8.90611,-5.69111 -14.10742,-5.63282 z"
           id="path8285"
           inkscape:connector-curvature="0"
           sodipodi:nodetypes="ccccccccccccccccccccc" />
        <path
           style="fill:#ffeeaa;fill-rule:evenodd;stroke:none;stroke-width:1.05255103px;stroke-linecap:butt;stroke-linejoin:miter;stroke-opacity:1"
           d="m 50.118219,184.04741 c -7.508841,-0.39254 20.62035,-62.65541 30.691637,-59.01432 12.60004,4.55532 5.412473,31.35123 -30.691637,59.01432 z"
           id="path8200-7-0-3"
           inkscape:connector-curvature="0"
           sodipodi:nodetypes="csc" />
        <path
           style="fill:#ffeeaa;fill-rule:evenodd;stroke:none;stroke-width:1.05255103px;stroke-linecap:butt;stroke-linejoin:miter;stroke-opacity:1"
           d="M 4.0461975,114.11746 C 9.3781621,110.85789 19.782408,167.31802 11.146303,169.52752 0.34179637,172.29179 -7.5057572,150.30673 4.0461975,114.11746 Z"
           id="path8200-7-0"
           inkscape:connector-curvature="0"
           sodipodi:nodetypes="csc" />
        <path
           style="fill:#ffeeaa;fill-rule:evenodd;stroke:none;stroke-width:1.05255103px;stroke-linecap:butt;stroke-linejoin:miter;stroke-opacity:1"
           d="m -62.57023,141.33861 c 4.08061,-7.1477 51.60092,28.73453 40.18011,33.96197 -8.379809,3.83554 -32.0828,2.71948 -40.18011,-33.96197 z"
           id="path8200-7-3-0"
           inkscape:connector-curvature="0"
           sodipodi:nodetypes="csc" />
        <path
           style="fill:#ffeeaa;fill-rule:evenodd;stroke:none;stroke-width:1.05255103px;stroke-linecap:butt;stroke-linejoin:miter;stroke-opacity:1"
           d="m -52.340917,222.63568 c -3.998022,7.64801 -50.556503,-30.74583 -39.366863,-36.33918 8.210201,-4.104 31.433446,-2.90982 39.366863,36.33918 z"
           id="path8200-7-3-6-3"
           inkscape:connector-curvature="0"
           sodipodi:nodetypes="csc" />
        <path
           style="fill:#ffeeaa;fill-rule:evenodd;stroke:none;stroke-width:1.05255103px;stroke-linecap:butt;stroke-linejoin:miter;stroke-opacity:1"
           d="m 44.533719,329.77393 c -2.738495,6.6057 -34.6293064,-26.55562 -26.964822,-31.38667 5.623679,-3.54469 21.530729,-2.51326 26.964822,31.38667 z"
           id="path8200-7-3-6"
           inkscape:connector-curvature="0"
           sodipodi:nodetypes="csc" />
        <path
           style="fill:#ffeeaa;fill-rule:evenodd;stroke:none;stroke-width:1.05255103px;stroke-linecap:butt;stroke-linejoin:miter;stroke-opacity:1"
           d="m 56.166515,261.9243 c 4.080614,-7.1477 51.600915,28.73453 40.180111,33.96197 -8.379811,3.83554 -32.082804,2.71948 -40.180111,-33.96197 z"
           id="path8200-7-3"
           inkscape:connector-curvature="0"
           sodipodi:nodetypes="csc" />
        <path
           style="fill:#ffeeaa;fill-rule:evenodd;stroke:none;stroke-width:1.05255103px;stroke-linecap:butt;stroke-linejoin:miter;stroke-opacity:1"
           d="m 71.690609,242.30688 c -1.504975,-8.09173 52.978911,-12.60269 52.610401,-0.0478 -0.46105,15.70724 -22.72633,22.80824 -52.610401,0.0478 z"
           id="path8200-7"
           inkscape:connector-curvature="0"
           sodipodi:nodetypes="csc" />
        <path
           style="fill:#ffeeaa;fill-rule:evenodd;stroke:none;stroke-width:1.05255103px;stroke-linecap:butt;stroke-linejoin:miter;stroke-opacity:1"
           d="m 61.392812,218.69304 c -6.221464,-5.46255 55.573828,-56.23205 62.037498,-45.42424 8.08658,13.52146 -14.27776,38.66164 -62.037498,45.42424 z"
           id="path8200"
           inkscape:connector-curvature="0"
           sodipodi:nodetypes="csc" />
        <path
           style="fill:#ffe680;fill-rule:evenodd;stroke:none;stroke-width:1px;stroke-linecap:butt;stroke-linejoin:miter;stroke-opacity:1"
           d="m 35.471045,189.32739 c -12.056347,5.57237 -30.1234344,-3.58286 -42.4975391,9.98997 -11.2793219,9.26331 -3.3370049,31.58504 -31.8507509,72.77171 0,0 19.779651,22.50788 19.779651,17.05143 0,-5.45646 53.601526,-41.25203 57.031395,-47.4826 4.927104,-8.95037 10.224648,-21.28776 4.746007,-33.09423 -7.60552,-16.38989 -7.208763,-19.23628 -7.208763,-19.23628 z"
           id="path8198"
           inkscape:connector-curvature="0"
           sodipodi:nodetypes="cccsssc" />
        <path
           style="fill:#ffb02a;fill-opacity:1;fill-rule:evenodd;stroke:none;stroke-width:1px;stroke-linecap:butt;stroke-linejoin:miter;stroke-opacity:1"
           d="m 23.871993,360.75648 c 11.945194,-11.44257 -41.307428,-44.68869 -53.882498,-35.46697 -29.133665,20.72195 -39.813084,40.903 -48.187905,60.51349 -28.32952,56.43612 -54.48493,39.74888 -106.63902,39.74888 -20.0091,8.241 -6.13851,35.46697 -6.13851,35.46697 9.78038,3.04922 39.14535,24.91031 48.60451,59.23551 17.6156,63.92313 58.808503,95.03275 98.037729,47.84742 8.311897,-13.56807 0.909409,-86.39388 1.364114,-129.59082 3.652538,-55.83247 34.606773,-70.15459 66.84158,-77.75448 z"
           id="path8194"
           inkscape:connector-curvature="0"
           sodipodi:nodetypes="cccccsccc" />
        <path
           style="color:#000000;clip-rule:nonzero;display:inline;overflow:visible;visibility:visible;opacity:1;isolation:auto;mix-blend-mode:normal;color-interpolation:sRGB;color-interpolation-filters:linearRGB;solid-color:#000000;solid-opacity:1;fill:#aa0000;fill-opacity:1;fill-rule:nonzero;stroke:none;stroke-width:2.5;stroke-linecap:round;stroke-linejoin:round;stroke-miterlimit:4;stroke-dasharray:none;stroke-dashoffset:0;stroke-opacity:1;color-rendering:auto;image-rendering:auto;shape-rendering:auto;text-rendering:auto;enable-background:accumulate"
           d="m -94.504566,545.17667 c -2.300751,-0.1545 -4.299811,1.38293 -5.433984,3.27106 -1.07359,1.8083 -2.25086,3.61876 -2.88429,5.63474 -0.34455,2.49361 1.66924,4.44474 3.251311,6.079 2.743517,2.82275 6.167509,4.8064 9.347703,7.05566 0.587796,0.74582 1.531578,1.01001 2.444452,0.77708 2.589906,0.0278 5.137755,1.32455 7.732218,0.561 3.164931,-0.79184 6.32892,-2.32932 8.387256,-4.93106 1.068572,-1.46947 0.745144,-3.43291 1.441418,-5.0607 0.837669,-2.08515 0.83116,-4.41224 0.48036,-6.59909 -0.447523,-2.24997 -2.327003,-3.76875 -3.880702,-5.29543 -1.977448,-1.89332 -5.095683,-1.6073 -7.330486,-0.35425 -0.987137,0.61782 -2.533364,0.96527 -2.81464,2.2548 0.06443,0.92618 0.885635,1.58159 1.314202,2.35926 -1.852282,-2.3635 -4.362392,-4.24927 -7.301681,-5.00319 -1.540446,-0.4558 -3.142512,-0.7539 -4.753137,-0.74888 z m 12.732261,6.73109 c 1.35267,2.03877 2.726293,4.43762 2.350707,6.96781 -0.47309,1.17669 -0.712526,2.57798 -1.608115,3.50955 -0.674308,0.20426 -0.157546,-0.77985 -0.198988,-1.12701 0.224617,-2.08962 1.009273,-4.17103 0.743772,-6.28594 -0.295849,-1.10572 -0.80552,-2.1447 -1.345156,-3.14961 l 0.05778,0.0852 z m -5.803659,9.88806 c 0.07808,0.84697 0.245439,1.99738 -0.406819,2.63814 -0.522771,0.19236 -0.586242,-0.23228 -0.388837,-0.65357 0.191154,-0.75757 0.494031,-1.40599 0.770008,-2.13668 l 0.0251,0.14883 5.53e-4,0.003 z"
           id="path8192"
           inkscape:connector-curvature="0" />
        <path
           style="color:#000000;clip-rule:nonzero;display:inline;overflow:visible;visibility:visible;opacity:1;isolation:auto;mix-blend-mode:normal;color-interpolation:sRGB;color-interpolation-filters:linearRGB;solid-color:#000000;solid-opacity:1;fill:#aa0000;fill-opacity:1;fill-rule:nonzero;stroke:none;stroke-width:0.80774242;stroke-linecap:round;stroke-linejoin:round;stroke-miterlimit:4;stroke-dasharray:none;stroke-dashoffset:0;stroke-opacity:1;color-rendering:auto;image-rendering:auto;shape-rendering:auto;text-rendering:auto;enable-background:accumulate"
           d="m -196.67847,235.01605 c -6.87171,0.0758 -12.06032,5.70952 -14.8056,11.52263 -1.74491,3.85242 -3.60333,7.8498 -4.02174,12.09627 0.46352,5.86204 1.6161,12.04776 5.15314,16.88939 0.83294,1.44823 8.81595,7.74764 12.04482,37.82001 7.04411,3.31872 14.22952,-4.72131 29.42085,13.29462 5.81342,-6.97422 24.62382,-37.41122 39.99137,-35.91267 0.8124,-1.70856 -10.78288,-57.90441 -36.26322,-41.62209 -4.45208,-4.50613 -15.34284,-14.54465 -31.51962,-14.08816 z"
           id="path8190"
           inkscape:connector-curvature="0"
           sodipodi:nodetypes="ccccccccc" />
        <path
           style="fill:#000000"
           d="m 4.6464844,131.59375 c -0.3310038,-0.0171 -0.2079625,0.68068 0.2148437,2.375 0.41174,1.65 1.3458719,7.95 2.0761719,14 0.73029,6.05 1.3674625,11.1125 1.4140625,11.25 0.04662,0.1375 0.4739619,0.25 0.9511719,0.25 1.2079706,0 0.6354762,-16.60485 -0.7460938,-21.63477 -0.62444,-2.27343 -1.8793525,-4.74843 -2.7890625,-5.5 -0.56049,-0.46305 -0.9224914,-0.72998 -1.1210937,-0.74023 z m 74.9042966,6.875 c -1.04604,0 -16.115234,25.0666 -16.115234,26.80664 0,0.65636 0.159659,1.19336 0.355469,1.19336 1.0625,0 8.776441,-11.60489 12.425781,-18.69336 4.50304,-8.74669 4.704414,-9.30664 3.333984,-9.30664 z M -52.1875,147.57031 c -0.26456,0.05 -0.376953,0.40582 -0.376953,1.0293 0,2.47353 9.633423,15.9985 15.751953,22.11523 3.42918,3.42816 4.238474,1.77944 1.083984,-2.20898 -1.2842,-1.6237 -5.260937,-7.01848 -8.835937,-11.99024 -4.660223,-6.48096 -6.829367,-9.09531 -7.623047,-8.94531 z M -121.16797,162.75 c -0.24735,0.006 -0.47607,0.13267 -0.61133,0.33984 -9.01486,13.39404 -23.59033,33.06017 -25.80859,73.55078 -0.32148,1.71772 -1.66029,2.62523 -6.5625,4.94141 -4.84335,2.28837 -6.88143,2.81779 -7.70117,1.99805 -0.81975,-0.81975 -0.0828,-2.17235 2.78515,-5.10938 2.14512,-2.19681 4.7099,-4.25178 5.70118,-4.5664 0.99128,-0.31462 2.27142,-1.44622 2.84375,-2.51563 1.30416,-2.43684 -1.94342,-7.0272 -8.08594,-11.42969 -2.29492,-1.64482 -5.02372,-3.77773 -6.06446,-4.74023 -1.17985,-1.09118 -2.04821,-1.67053 -2.63476,-1.71289 -0.97759,-0.0706 -1.17288,1.34793 -0.7207,4.36328 0.5474,3.65036 0.16378,7.09631 -0.70508,7.99024 -1.14329,-14.32231 -1.62126,-27.91588 -1.82227,-34.97266 -0.006,-0.42289 -0.36068,-0.757 -0.7832,-0.73828 -0.41359,0.018 -0.7344,0.36765 -0.7168,0.78125 0.21608,7.5861 0.73564,22.66586 2.07031,38.16406 4e-4,0.005 -3.9e-4,0.009 0,0.0137 0.0213,0.6715 0.068,1.42137 0.14063,2.22266 0.29241,3.22479 0.13578,6.11016 -0.34961,6.41015 -0.4854,0.29999 -3.53941,-1.01942 -6.78711,-2.93164 -4.85331,-2.85759 -7.49833,-3.65451 -14.84375,-4.47461 -21.44048,-3.13857 -31.35509,20.86329 -26.34961,39.34961 0.76467,2.35672 1.66564,5.49017 2.00195,6.96485 0.33635,1.47467 3.28789,5.49632 6.56055,8.93554 l 5.95117,6.25196 -0.91992,7.25976 c -1.02277,8.06683 -0.0833,12.44537 3.42578,15.97461 3.20816,3.22662 6.05438,4.39578 10.77344,4.42188 7.04893,0.039 11.47692,1.52877 15.97266,5.37695 4.52167,3.87039 5.576,4.03867 7.27148,1.16016 0.79826,-1.35525 0.74634,-1.93573 -0.20508,-2.28125 -6.28682,-3.66449 -15.92427,-12.46561 -23.38476,-10.94727 -1.03556,0.27081 -3.11303,-0.12268 -4.61719,-0.87305 -2.59727,-1.29569 -2.7495,-1.76905 -3.02539,-9.41211 -0.1851,-5.12761 0.0903,-8.04687 0.75781,-8.04687 0.57623,0 1.04878,-1.0125 1.05078,-2.25 0.002,-1.2375 1.35081,-4.275 2.9961,-6.75 5.19367,-12.42184 19.56464,-20.09111 26.45312,-26.24414 0.70902,0.74855 1.37147,2.07169 2.04492,3.71875 0.28624,1.14382 0.58065,2.25182 0.89063,3.29297 0.0719,0.26166 0.27956,0.46407 0.54297,0.52929 1.85522,5.20772 4.04194,11.64562 7.56836,15.48633 2.30389,5.42541 8.705,8.76995 10.02929,14.36914 0.19637,1.01967 0.65166,2.33148 1.01172,2.91407 0.36006,0.58259 -0.1403,1.93679 -1.11133,3.00976 -1.33936,1.47998 -2.54122,1.80564 -4.98242,1.34766 -7.69208,-1.0486 -9.3384,6.98965 -10.2539,10.57617 -1.42698,0 -1.0392,14.33551 0.52734,19.5 1.84858,6.09427 7.16906,17.1623 8.9668,18.6543 0.72201,0.59921 1.3125,1.49683 1.3125,1.99414 0,0.49732 1.4625,2.51484 3.25,4.48242 4.42471,4.87047 4.76426,2.32136 0.75,-5.63086 -6.7377,-13.3473 -9,-20.8447 -9,-29.82617 0,-8.0757 0.10949,-8.47478 3.10547,-11.27344 5.71409,-5.33776 12.74674,-3.49073 25.14648,6.60352 3.71312,3.02275 7.00497,5.49609 7.31641,5.49609 0.31146,0 0.2936,-0.86356 -0.041,-1.91797 -0.49295,-1.55315 -0.22194,-1.81523 1.43164,-1.38281 2.5695,0.67194 2.55576,0.48613 -0.36719,-4.82422 -3.22171,-5.85313 -7.5126,-19.8289 -8.24804,-26.86523 -0.59396,-5.68268 -0.58968,-5.69467 2.98242,-7.90235 3.2084,-1.9829 4.01982,-2.09186 7.875,-1.05469 2.36416,0.63603 5.56044,1.80725 7.10156,2.60352 3.83141,1.97962 16.697267,14.29184 16.697267,15.97852 0,0.91346 -1.258144,1.36523 -3.808594,1.36523 -0.480518,0 -0.993605,0.0466 -1.515625,0.12695 -0.676379,-0.0102 -1.339931,0.0182 -1.984375,0.0977 -1.573663,0.19396 -3.043683,0.66258 -4.375003,1.44336 -1.97947,1.1609 -3.30313,3.28006 -4.05468,5.92773 -0.0373,0.13125 -0.067,0.27026 -0.10157,0.4043 -0.86154,2.45931 -0.97725,7.09894 -0.18359,11.79297 l 0.006,0.041 c 0.0227,0.1333 0.0363,0.26513 0.0606,0.39844 0.62229,3.4317 1.34378,6.58172 1.60351,7.00195 0.051,0.0825 0.12648,0.15786 0.20313,0.23243 0.345,1.07654 0.72704,2.1622 1.15039,3.25781 -1e-5,10e-4 0,0.002 0,0.004 0,0.34255 0.21912,0.8574 0.54492,1.39062 0.92618,2.23206 2.01327,4.48557 3.26953,6.72852 0.19167,1.02915 0.20604,1.85547 -0.0723,2.08593 -3.16069,-3.40256 -6.36849,-6.28109 -9.59961,-8.45703 -2.67887,-1.80404 -5.42014,-3.11659 -8.15039,-3.84765 0.001,-0.004 0.008,-0.009 0.008,-0.0137 0,-0.21089 -1.125,-0.59847 -2.5,-0.86132 -1.20313,-0.23 -2.21509,-0.12609 -2.44922,0.2207 -0.82033,0.009 -1.63542,0.076 -2.44336,0.21094 -0.20064,-0.10529 -0.48422,-0.16227 -0.85742,-0.15235 -0.57191,0.0152 -1.42949,0.44682 -2.30664,1.04297 -0.53311,0.21143 -1.06269,0.44095 -1.58594,0.7168 -2.47136,1.30286 -3.95668,3.77667 -4.66406,6.85547 -0.641,2.78991 -0.66596,6.13402 -0.15235,9.83398 -0.0957,0.57398 0.1421,1.87908 0.69532,3.81641 1.14161,5.12671 3.19511,10.74696 6.11132,16.375 0.053,0.10971 0.0933,0.21585 0.15235,0.32617 0.0497,0.0929 0.10157,0.1627 0.15234,0.25 1.41826,2.68303 3.02589,5.36268 4.82813,7.98633 1.21037,1.76202 2.49176,3.47217 3.80273,5.14844 0.15539,0.2182 0.30094,0.44009 0.4668,0.65039 0.11284,0.14308 0.23913,0.26827 0.35742,0.40625 5.36719,6.68476 11.36425,12.48654 16.95312,16.29492 2.50165,1.70468 4.916705,3.01104 7.210941,3.81054 0.06144,0.12822 0.122676,0.25619 0.205078,0.41016 1.01497,1.89648 0.134858,3.17818 -2.976562,4.33008 -0.98803,0.36579 -0.73205,0.58081 0.75,0.63281 3.14545,0.11037 2.80444,2.22127 -1,6.18945 -11.337177,9.24658 -27.800327,14.02393 -42.249997,13.38477 -8.11907,-0.48836 -18.68846,-2.0954 -23,-3.49609 -4.21522,-1.36939 -14.30716,-1.52068 -18.68555,-0.28125 -2.02697,0.5738 -5.74412,2.72963 -8.25977,4.79101 -6.06871,4.97286 -8.10951,11.31597 -6.61914,20.57032 1.31434,8.16131 5.52772,16.92187 8.13868,16.92187 2.47476,0 2.45896,-2.34734 -0.0391,-5.79102 -7.18856,-12.00808 -5.29262,-13.67579 -4.76172,-20.20507 0.72809,-10.19872 14.77134,-15.96796 28.64063,-12.35547 7.24438,1.88692 14.44547,2.544 26.58594,2.42578 13.27655,0.0853 40.415782,-1.99938 52.499997,-26.08985 0,-0.58026 0.692732,-2.11263 1.539062,-3.40429 0.548973,-0.83784 0.969754,-1.71577 1.185547,-2.37695 1.867298,-3.20266 3.170927,-6.17538 3.953125,-9.02344 1.761084,-1.76069 1.750446,-1.56151 -0.291015,6.32031 -0.42134,1.62671 -0.320977,1.72003 0.533203,0.5 0.92715,-1.32425 1.050953,-1.3195 1.064453,0.0488 0.0084,0.8525 -0.546875,2.14625 -1.234375,2.875 -1,1.06 -1,1.41654 0,1.7832 0.6875,0.25209 1.255672,2.10834 1.263672,4.125 0.0075,2.01667 0.285547,4.68047 0.617187,5.91797 1.23146,4.5952 2.162203,2.00583 2.158203,-6 -0.0049,-10.0535 0.994095,-19.14613 2.146485,-19.54883 0.46899,-0.16387 0.63738,-1.11775 0.375,-2.12109 -0.26238,-1.00334 0.394274,-3.79534 1.458984,-6.20313 2.666835,-6.03089 3.363827,-7.8097 3.38086,-9.02929 0.474012,-0.41825 0.885874,-0.93705 1.216796,-1.54297 0.270519,-0.49533 0.448996,-0.81847 0.708985,-1.29297 0.541991,-0.43413 0.923828,-1.08615 0.923828,-1.67578 0,-0.003 0.0019,-0.008 0.002,-0.0117 1.37257,-2.49861 2.697927,-4.91538 3.751953,-6.87109 9.454552,-12.6389 24.92631,-28.65133 41.246094,-27.99415 15.5856393,1.14883 28.9549926,10.16235 37.720703,25.43165 1.77102,3.08499 3.2335,6.11865 3.25,6.74218 0.01959,0.74092 -3.348653,1.2831 -9.720703,1.56446 -17.0000013,-0.75005 -34.162743,11.56961 -41.6875,27.4121 -5.36566,11.60123 -16.802001,33.99575 -18.082031,35.41016 -5.178406,11.47066 -14.329055,21.24456 -24.980469,28.94531 -23.974919,16.24392 -63.951214,15.18793 -94.285154,-4.15039 -4.33763,-4.39148 -14.97415,-6.94794 -16.60547,-10.38867 -0.54657,-1.42431 -0.75666,-1.42113 -2.2207,0.043 -1.8145,1.81451 -1.53303,2.29931 5.61133,9.61523 4.84908,4.96552 13,16.4287 13,18.28321 4.30953,6.28265 7.57096,12.98645 12.62109,19.30078 1.85852,2.29256 3.37891,4.44793 3.37891,4.79101 0,0.34307 3.375,7.57565 7.5,16.07227 4.125,8.49663 7.5,15.86629 7.5,16.37695 0,0.51067 0.63407,2.2027 1.4082,3.75977 4.38126,8.44204 6.11507,17.17583 10.25977,25.47461 5.32152,11.51472 13.97799,19.61754 20.38476,24.9707 6.714524,5.60009 9.802823,7.23107 16.802733,8.87695 6.65846,1.5656 18.630191,0.88045 22.644531,-1.29492 4.51955,-2.44915 11.891874,-9.74679 13.833984,-13.69531 0.94683,-1.925 2.089753,-4.175 2.539063,-5 5.25201,-9.64347 6.484778,-14.74832 9.298828,-38.5 0.8527,-7.19708 0.721349,-12.706 -0.650391,-27.5 -1.46842,-15.83665 -1.553959,-21.23533 -0.599609,-37.5 0.61317,-10.45 1.73545,-21.925 2.49414,-25.5 1.79738,-8.46931 4.675921,-18.2551 5.712891,-19.42383 0.95023,-1.07096 4.523245,2.50811 7.802735,7.81446 1.898479,3.07179 4.068359,4.74483 4.068359,3.13867 0,-1.73554 -5.037627,-9.52657 -8.591797,-13.28907 -4.7541,-5.03276 -4.776066,-4.3961 0.521484,-14.99023 2.50357,-5.0067 3.594263,-6.25 5.476563,-6.25 1.29235,0 2.90906,0.675 3.59375,1.5 0.68469,0.825 1.619895,1.5 2.078125,1.5 1.3871,0 8.167387,4.87771 12.5292968,9.01367 7.1063,6.73811 8.1043581,17.32129 3.2988281,34.98633 -10.4250519,25.37916 -12.7667979,50.19752 -20.0156249,74.59375 -0.78127,2.56647 -2.443012,12.18629 -4.388672,25.40625 -2.63699,17.9172 -3.69219,35.89449 -3.8125,65 -0.13542,32.76127 0.20019,40.19028 2.84375,63 1.87506,16.17841 1.870031,19 -0.0332,19 -2.06202,0 -1.895266,1.03845 0.990234,6.20117 1.37082,2.45265 3.224423,8.46349 4.126953,13.37696 0.90139,4.90724 2.536783,11.39687 3.632813,14.42187 1.28544,3.54776 2.296659,9.93692 2.849609,18 1.28005,18.66572 1.746187,20.73569 5.691406,25.25781 1.4634711,1.67746 1.624118,1.67746 3.492188,0 1.8144,-1.62927 1.9063344,-2.6256 1.2714844,-13.58789 -1.91802,-33.11966 -0.1148059,-47.58248 10.0527344,-80.66992 2.45066,-7.975 4.8631781,-15.85 5.3613281,-17.5 3.3558921,-14.03095 6.8960321,-29.55523 7.6347651,-42.5 0.7074,-13.26513 -1.361584,-35.47074 -4.052734,-43.5 -0.73737,-2.2 -2.113113,-6.7 -3.0585936,-10 -0.94547,-3.3 -2.3129625,-7.35 -3.0390625,-9 -0.72609,-1.65 -2.9557883,-6.825 -4.9550781,-11.5 -3.8284002,-8.95207 -6.4980469,-12.93771 -6.4980469,-9.70313 0,0.94886 0.8672744,3.63139 1.9277343,5.9629 3.07825013,6.76772 7.98448,21.97258 10.15625,31.47656 2.8988708,12.68585 3.8472998,20.46132 3.8749998,31.76367 0.186624,21.0324 -2.7296701,33.45135 -8.9511716,54.5 -1.21463,4.125 -3.7025069,11.325 -5.5292969,16 -3.22407,8.25086 -4.8588346,13.53024 -9.5214845,30.75 -1.22863,4.5375 -2.604271,8.25 -3.05664,8.25 -0.879201,0 -2.45378,-5.2678 -3.28711,-11 -1.81609,-12.49241 -1.821721,-12.2881 0.355469,-11.71875 2.29937,0.6013 2.6355,-0.47797 0.78125,-2.50586 -4.07787,-4.45974 -5.721678,-11.42723 -3.835938,-16.25391 0.958369,-1.62137 6.047521,2.95279 6.72461,3.97852 0.31659,0.825 1.31509,1.49714 2.21875,1.49414 1.15026,-0.003 0.592908,-0.9918 -1.857422,-3.29687 -6.64238,-6.24862 -8.214913,-9.36819 -9.126953,-18.09766 -1.59274,-15.24468 -1.770209,-66.03165 -0.292969,-84.01367 0.76424,-9.30286 1.667289,-17.78872 2.005859,-18.85547 0.33857,-1.06675 0.974833,-4.25361 1.414063,-7.08399 1.79528,-11.56867 4.483049,-21.45944 12.9492186,-47.64648 7.12342474,-26.35467 25.5487594,-56.51363 12.7851563,-77.65625 -3.74091,-6.11612 -14.0071056,-14.99205 -21.2343749,-18.35938 -3.84104,-1.78958 -6.500047,-3.9964 -6.498047,-5.39062 6.7e-4,-0.60225 1.156942,-2.44375 2.570312,-4.09375 12.8971311,-15.05646 18.3591326,-18.04283 35.539063,-19.42383 6.10711,-0.49092 11.508666,-1.29773 12.003906,-1.79297 0.88279,-0.88279 -3.313865,-12.76704 -5.203125,-14.73437 -0.50176,-0.5225 -0.912109,-1.67755 -0.912109,-2.56836 -5.094657,-12.40112 -23.547953,-21.1739 -35.408203,-23.4336 -4.22767,-0.73414 -8.452232,-1.18598 -9.388672,-1.0039 -15.330048,2.47347 -22.390333,6.9835 -30.28125,13.29492 -1.60691,1.2864 -2.921875,1.8489 -2.921875,1.25 0,-0.50444 -0.331984,-0.91101 -0.769531,-1.0332 -0.229824,-0.53719 -0.48192,-1.08026 -0.777344,-1.64063 -1.319869,-2.50356 -3.267343,-5.37436 -5.78711,-9.45508 -0.584474,-0.94654 -1.202145,-1.87579 -1.841796,-2.79101 -0.05307,-0.25084 -0.125352,-0.50892 -0.22461,-0.76758 -0.35589,-0.92744 -0.871484,-1.4625 -1.146484,-1.1875 -0.009,0.009 -0.01514,0.0246 -0.02344,0.0352 -2.212787,-2.91951 -4.678114,-5.64136 -7.28125,-8.08008 -0.872116,-0.98224 -1.522331,-1.55787 -2.011718,-1.79883 -0.764791,-0.65713 -1.538721,-1.28924 -2.31836,-1.89453 -0.127392,-0.18836 -0.308361,-0.33536 -0.535156,-0.41016 -0.777708,-0.58944 -1.560015,-1.15209 -2.345703,-1.68554 -0.13418,-0.25685 -0.49923,-0.60804 -0.9375,-0.87891 -0.236214,-0.14599 -0.445591,-0.17515 -0.617188,-0.13477 -0.249267,-0.15642 -0.498696,-0.31843 -0.748047,-0.46875 -0.613713,-0.36995 -1.227736,-0.71385 -1.841796,-1.04687 0.96561,-0.0886 1.06361,-0.25645 0.171875,-0.49805 -0.84454,-0.22881 -3.033312,-2.91901 -4.863282,-5.97851 -9.47045,-15.83353 -23.698057,-23.91447 -35.156247,-19.9668 -2.42908,0.83685 -4.73807,1.19948 -5.13086,0.80664 -0.3928,-0.39284 -0.33445,-2.51289 0.12891,-4.71289 0.41215,-1.95689 0.75606,-4.02751 1.02734,-5.9707 3.79497,-19.5671 11.27946,-49.67247 28.53125,-68.16211 0.44944,-0.46732 0.13429,-1.24623 -0.51367,-1.26953 -0.22078,-0.008 -0.43373,0.0824 -0.58203,0.24609 -15.83259,16.96862 -23.48038,43.12812 -27.61914,62.50781 -0.33209,1.06584 -0.69428,2.84826 -0.99024,4.81836 -0.52077,2.64025 -0.94935,4.95892 -1.35156,7.20117 -0.71532,1.88863 -1.44531,1.62547 -1.44531,-1.8125 0,-1.61754 -0.3862,-3.18021 -0.85938,-3.47265 -0.47319,-0.29245 -1.14732,-2.61369 -1.49609,-5.15821 -0.41194,-3.00545 -1.74323,-6.02714 -3.80078,-8.625 l -3.16797,-4 3.16211,-2.4746 c 2.86073,-2.23886 3.16211,-2.99358 3.16211,-7.9336 0,-4.7395 -0.29682,-5.57285 -2.25,-6.32226 -1.28986,-0.49493 -2.65461,-0.48203 -3.19922,0.0312 -1.8534,1.74711 -3.5513,0.87876 -3.6211,-1.85352 -0.01,-0.38141 -0.0268,-0.60495 -0.041,-0.87305 3.17819,-36.16527 16.54089,-54.14267 25.14062,-66.91992 0.34716,-0.50335 -0.0215,-1.1883 -0.63281,-1.17578 z m 183.273439,4.87891 c -0.21748,0.0455 -0.584452,0.46587 -1.201172,1.28125 -0.80751,1.06762 -1.46875,2.35887 -1.46875,2.87109 0,0.51223 0.675,0.37219 1.5,-0.3125 0.825,-0.68469 1.48625,-1.97789 1.46875,-2.87305 -0.01336,-0.68366 -0.08135,-1.01226 -0.298828,-0.96679 z m -4.111328,5.83984 c -0.24254,0 -0.718674,0.45 -1.058594,1 -0.33992,0.55 -0.141054,1 0.441406,1 0.58246,0 1.058594,-0.45 1.058594,-1 0,-0.55 -0.198866,-1 -0.441406,-1 z m 55.201169,8.45508 c -7.90223,0.72703 -37.350946,22.55878 -37.759763,26.73047 0,0.53885 0.3375,0.83031 0.75,0.64648 13.207509,-6.55421 20.753511,-15.75312 34.011723,-21.86328 1.39296,-0.0592 4.26141,-4.83741 3.27148,-5.44922 -0.0608,-0.0376 -0.15298,-0.059 -0.27344,-0.0644 z m -200.457029,5.50781 c -0.792198,0.0242 -0.970822,0.78641 -0.216797,2.19531 1.21342,2.2673 2.760385,3.79352 10.490235,10.3418 3.995029,5.70744 12.487151,8.23228 16.423828,13.45117 0,0.49554 0.7875,1.10786 1.75,1.35938 2.91347,0.76137 3.25,0.72932 3.25,-0.31055 0,-0.55 -0.467283,-1 -1.039063,-1 -9.683253,-6.92114 -18.032147,-16.94935 -27.849609,-24.70898 -1.205684,-0.91813 -2.192439,-1.34692 -2.808594,-1.32813 z m 123.21875,1.16602 c -0.489177,0.003 -1.478465,0.50028 -3.478515,1.49804 -2.79493,1.39429 -4.245413,1.46615 -10.095704,0.5 -8.380879,-1.38407 -14.3344914,-1.426 -18.9824214,-0.13476 -4.95862,1.37757 -12.8130477,6.55741 -14.0234376,9.24804 -0.55876,1.24209 -2.095652,4.03772 -3.414062,6.21094 -1.31841,2.17322 -2.205627,4.25976 -1.972657,4.63672 0.23298,0.37697 -0.20072,1.2034 -0.96289,1.83594 -0.76216,0.63254 -1.166521,1.98229 -0.900391,3 0.26614,1.0177 -0.0056,2.15195 -0.603515,2.52148 -0.59792,0.36953 -1.103547,2.78324 -1.123047,5.36328 -0.04511,5.96696 -2.290708,20.34234 -4.085938,26.16211 -0.81465,2.64094 -3.031262,6.12139 -5.414062,8.5 -2.21924,2.21534 -5.316716,5.9418 -6.884766,8.2793 -1.56806,2.3375 -3.18528,4.25 -3.59375,4.25 -0.40847,0 -1.283309,1.30296 -1.943359,2.89648 -0.97697,2.35859 -0.921112,3.42772 0.298828,5.75 1.87067,3.561 9.173463,10.60939 13.158203,12.69922 1.65,0.86536 4.426552,1.59128 6.169922,1.61328 2.7806,0.0351 3.775918,-0.79349 8.105469,-6.74609 5.7890681,-7.95925 11.0710483,-12.5621 24.724609,-21.54492 10.67997,-7.02647 14.181553,-9.7157 21.345703,-16.39649 5.89632,-5.4985 4.685778,-6.62901 -1.757812,-1.64257 -9.524961,7.37101 -16.634598,12.09136 -26.867188,17.83984 -5.65316,3.17584 -10.9029488,6.66756 -11.6679688,7.75977 -1.36137,1.94363 -1.4468266,1.94688 -3.9726562,0.1289 -4.51483,-3.24959 -3.203716,-5.14061 16.7773438,-24.1914 3.6532999,-3.48322 6.6425782,-6.78111 6.6425782,-7.33008 0,-1.06571 -2.787352,1.39863 -14.607422,12.91406 -4.09299,3.9875 -7.769149,7.24995 -8.167969,7.25195 -0.39883,0.002 -1.624609,1.35121 -2.724609,2.99805 -1.1,1.64684 -2.288928,2.99409 -2.642578,2.99609 -1.13229,0.005 -1.806413,-2.91036 -0.814453,-3.52343 0.52598,-0.32508 0.942481,-1.35121 0.925781,-2.28125 -0.02545,-1.41508 -0.214973,-1.36509 -1.164063,0.30859 -1.83626,3.23819 -2.930218,3.43449 -6.449218,1.15625 -3.85494,-2.49572 -4.050314,-3.22627 -1.464844,-5.49609 2.91259,-2.557 7.983067,-18.94769 8.091797,-26.16016 0.07004,-4.64681 3.202167,-16.39138 5.867187,-22 2.7667105,-5.82266 8.956019,-12.34956 14.292969,-15.07227 3.66174,-1.86808 5.3630144,-2.08663 12.791016,-1.64062 4.71196,0.28292 9.513835,0.74468 10.671875,1.02734 1.15804,0.28266 3.359498,-0.30877 4.892578,-1.31445 1.53308,-1.00569 3.398151,-1.59305 4.144531,-1.30664 0.79579,0.30537 1.357422,-0.14553 1.357422,-1.08789 0,-0.987 0.01066,-1.4792 -0.478516,-1.47656 z m -0.4375,5.82812 c -0.212244,-0.0217 -0.453159,0.0782 -0.707031,0.33203 -0.34294,0.34294 -0.273763,1.43175 0.154297,2.41797 0.74368,1.71341 0.798541,1.71187 1.212891,-0.0352 0.35054,-1.47792 -0.02342,-2.6497 -0.660157,-2.71484 z m 3.484375,7.29492 c -0.497041,-0.10926 -0.138872,1.66759 1.283203,4.45508 5.19729,10.18753 5.071632,21.70291 -0.330078,30.25977 -1.38629,2.19603 -2.521484,4.45274 -2.521484,5.01367 0,1.67534 0.51527,1.22314 3.6875,-3.23047 1.66495,-2.3375 3.599175,-6.66313 4.296875,-9.61133 1.961524,-8.28859 0.813959,-14.3298 -4.644531,-24.46484 -0.86793,-1.61153 -1.47326,-2.35632 -1.771485,-2.42188 z m -34.300781,0.41016 c -1.1639269,-4e-4 -2.4074187,0.22558 -3.5644531,0.7207 -6.58315,2.81707 -13.7031249,13.72104 -13.7031249,20.98633 0,2.36381 0.299346,4.59623 0.666015,4.96289 2.0201811,2.02019 4.6410836,-0.0901 5.7207036,-4.60742 0.89503,-3.74495 7.3072713,-10.67883 11.6132813,-12.55859 2.85645,-1.24697 3.1392825,-1.60745 1.5390625,-1.96094 -3.27663,-0.72383 -8.2293975,2.75276 -11.9921875,8.41992 -3.33073,5.01644 -5.5468749,6.75226 -5.5468749,4.3418 0,-1.80546 4.7863886,-10.55988 7.6054686,-13.91016 3.68735005,-4.38217 6.9870269,-5.55392 10.0292969,-3.56055 2.13392,1.39838 2.3652344,1.39844 2.3652344,0.002 0,-1.73804 -2.1717827,-2.83506 -4.7324219,-2.83594 z m 10.849609,10.33789 c -0.55,0 -1.277267,0.45 -1.617187,1 -0.33992,0.55 -0.167188,1 0.382812,1 0.55,0 1.277268,-0.45 1.617188,-1 0.33992,-0.55 0.167187,-1 -0.382813,-1 z m 3.296875,2.43945 c -0.671921,-0.0445 -1.277125,0.27908 -2,1.00196 -1.01604,1.01604 -1.139778,1.55859 -0.355468,1.55859 0.81555,0 1.020045,1.12583 0.634765,3.5 -0.7656,4.71786 -0.02175,4.43328 1.306641,-0.5 0.5924,-2.2 1.622762,-4.01455 2.289062,-4.03125 0.6663,-0.0167 0.417436,-0.49174 -0.552734,-1.05664 -0.491216,-0.28602 -0.919113,-0.44592 -1.322266,-0.47266 z m -7.523437,0.56055 c -1.5951707,0 -4.4428995,2.85502 -9.4746095,9.5 -3.04176,4.01701 -8.4191561,13.20893 -8.4101563,14.375 0.0073,0.91712 4.9166844,-5.22777 4.9589844,-6.20703 0.04427,-1.0238 6.1949109,-8.85541 10.9316406,-13.91797 2.3150908,-2.47435 2.9943408,-3.75 1.9941408,-3.75 z m 12.621094,1.8457 c -0.163996,-0.0943 -0.279297,0.71055 -0.279297,2.1543 0,1.925 0.205501,2.7125 0.457031,1.75 0.25152,-0.9625 0.25152,-2.5375 0,-3.5 -0.06288,-0.24062 -0.123069,-0.37285 -0.177734,-0.4043 z m -9.871094,1.60743 c -0.976453,-0.0518 -3.6682,2.30933 -4.5996095,4.35351 -0.76175,1.67189 -0.7813633,2.80024 -0.064453,3.66406 1.1459905,1.38083 6.0234375,0.85135 6.0234375,-0.65429 0,-0.52295 -0.961829,-0.64634 -2.136719,-0.27344 -1.93529,0.61424 -2.069111,0.40802 -1.425781,-2.1836 0.39056,-1.57331 1.127379,-3.01002 1.636719,-3.19335 0.50933,-0.18334 0.925781,-0.74899 0.925781,-1.25782 0,-0.30268 -0.13404,-0.44314 -0.359375,-0.45507 z m 10.091797,4.67187 c -0.102434,0.0213 -0.250557,0.31249 -0.466797,0.875 -0.31714,0.825 -1.632445,2.89184 -2.921875,4.59375 -1.28943,1.70192 -2.34375,3.38942 -2.34375,3.75 0,0.36059 0.367686,0.65625 0.816406,0.65625 1.07708,0 5.206579,-7.39014 5.105469,-9.13672 -0.02961,-0.51145 -0.08702,-0.75955 -0.189453,-0.73828 z m -6.261719,11.11523 c -1.135744,-0.12362 -5.470703,3.67754 -5.470703,4.9336 0,1.32399 0.724729,0.98618 3.605469,-1.6836 1.48954,-1.38046 2.410255,-2.8085 2.046875,-3.17187 -0.04505,-0.0451 -0.105925,-0.0699 -0.181641,-0.0781 z m -213.06836,0.88672 c 3.66129,0.0666 7.52154,1.22861 11.42578,2.87305 6.12866,4.27893 6.33399,6.13477 6.33399,6.13477 -19.39703,13.20433 -23.53469,20.23229 -28.16211,28.49414 -2.0611,5.64172 -4.48323,2.3558 -6.18946,-1.26758 -1.48297,-3.14927 -3.08115,-9.60397 -3.00195,-14.21289 4.45042,-17.00996 11.53891,-22.168 19.59375,-22.02149 z m 187.6816412,4.87305 c -0.5958299,0 -1.0839843,0.64202 -1.0839843,1.42773 0,0.78572 -0.5625,2.02322 -1.25,2.75 -0.6874999,0.72679 -1.7723809,2.78477 -2.4121089,4.57227 -1.851932,5.17461 0.05117,3.76313 2.6972651,-2 1.32578,-2.8875 2.5733644,-5.5875 2.7714844,-6 0.19813,-0.4125 -0.1268163,-0.75 -0.7226563,-0.75 z m 93.1738278,1.10937 c -1.538745,-0.0344 -2.182412,0.20285 -1.867187,0.7129 0.27989,0.45286 5.143524,1.62516 10.808594,2.60351 5.665064,0.97836 12.100784,2.13349 14.300784,2.56836 13.62964,2.12004 10.83625,-0.6492 -1.20508,-2.56445 -5.38727,-0.83682 -12.044923,-1.91778 -14.794923,-2.40235 -3.269395,-0.57609 -5.703443,-0.88355 -7.242188,-0.91797 z m -235.617189,8.28516 c 0,0 3.56366,11.86304 3.67383,13.67774 0.50153,13.23429 9.11114,32.45817 7.84375,30.56445 -0.89282,-1.36773 -3.26693,0.96036 -4.31445,1.96484 -1.90003,1.82194 -13.65758,-18.81514 -14.36133,-21.61914 -5.17412,-8.5798 -9.18615,-16.09381 -3.94531,-19.20117 0.5959,-0.3445 2.46289,-1.23088 2.46289,-1.7793 0,-1.33812 8.64062,-3.60742 8.64062,-3.60742 z m 3.97266,3.05664 c 0.29558,0.009 0.72559,0.19456 1.34375,0.52539 2.28947,1.22529 4.02911,6.74476 4.03711,12.80469 0.007,5.4395 1.90304,9.84878 6,13.96094 3.29332,3.30553 3.50996,5.27322 1.38476,12.50781 -0.28273,0.9625 -1.15737,1.75 -1.94531,1.75 -1.66242,0 -1.5864,0.0935 -2.0293,-2.5 -0.80438,-4.71028 -1.60734,-8.13105 -2.34375,-10 -3.93753,-6.6817 -2.83944,-15.15906 -5.56054,-21.8457 -0.53253,-1.27452 -0.97976,-2.7563 -1.2461,-3.97461 0.072,-0.12838 0.10462,-0.2751 0.0937,-0.42188 -0.0346,-0.91179 -0.0507,-1.79334 -0.0742,-2.6875 0.0866,-0.0814 0.19635,-0.12358 0.33985,-0.11914 z m 115.162108,15.72461 c 1.877057,-0.26637 9.028659,4.49924 13.224609,8.81055 0.275,0.28256 1.374146,0.99469 2.441406,1.58398 1.06727,0.5893 2.115971,1.6018 2.332031,2.25 0.47951,1.43851 -3.403523,1.58546 -4.283203,0.16211 -0.34546,-0.55897 -1.046593,-0.75589 -1.558593,-0.43945 -0.511991,0.31643 -0.931641,0.13967 -0.931641,-0.39258 0,-0.53226 -3.0375,-3.37284 -6.75,-6.31055 -5.81507,-4.60147 -6.433931,-5.38602 -4.474609,-5.66406 z m 95.988281,2.10742 c -0.234697,-0.0176 -0.415555,0.0366 -0.541016,0.16211 -0.36471,0.36471 3.948748,5.13713 9.585938,10.60742 5.63718,5.47029 10.447513,9.94727 10.689453,9.94727 1.44243,0 -1.715479,-4.3994 -7.425782,-10.3457 -6.386091,-6.65001 -10.665715,-10.24778 -12.308593,-10.3711 z m 22.177734,21.7168 c -0.58246,0 -0.781326,0.45 -0.441406,1 0.33992,0.55 0.816054,1 1.058594,1 0.24254,0 0.441406,-0.45 0.441406,-1 0,-0.55 -0.476134,-1 -1.058594,-1 z m -228.765623,4.0293 c 0.52893,-0.0968 0.89568,0.25827 0.5957,1.1582 -0.21771,0.65312 -0.93048,1.3642 -1.58398,1.58203 -0.73075,0.24358 -0.95576,-0.21359 -0.58203,-1.1875 0.34876,-0.90885 1.04137,-1.45595 1.57031,-1.55273 z m 168.140623,3.48437 c -0.694575,0.0959 -0.195114,1.85185 1.541016,4.33203 4.746075,7.13418 7.08659,14.02717 11.951172,21.1543 -2.312867,-7.64306 -5.779853,-18.95999 -11.808594,-24.5 -0.806031,-0.72945 -1.367878,-1.02991 -1.683594,-0.98633 z m -158.636723,0.0332 c 0.8113,-0.0138 1.32032,0.49327 1.32032,1.5254 0,0.52515 1.28846,3.6604 2.86328,6.96679 3.08001,6.46658 2.76562,8.32368 -0.77149,4.5586 -1.20931,-1.28726 -3.74889,-3.1764 -5.64453,-4.19727 -4.10019,-2.2081 -4.35429,-4.25052 -0.90234,-7.25195 1.21071,-1.05269 2.32347,-1.58777 3.13476,-1.60157 z M -98,302.75781 c 3.76353,0.0491 8.310422,1.61725 12.972656,4.42774 7.104358,4.28263 14.355112,11.31832 19.320313,19.35937 2.542163,4.11699 4.487046,6.9992 5.714843,9.32813 1.165524,2.21079 1.678377,3.86069 1.605469,5.75586 -0.460422,0.99563 -1.263215,2.14777 -2.49414,3.62109 -5.94784,7.11911 -6.739176,7.74312 -7.759766,6.13086 -0.49166,-0.7767 -0.900203,-1.72835 -0.908203,-2.11328 -0.04234,-1.93506 -6.497574,-9.93413 -9.527344,-11.80664 -3.69908,-2.28615 -7.548114,-2.3509 -8.277344,-0.13867 -0.3201,0.97104 0.138271,1.16922 1.619141,0.69921 1.61714,-0.51325 2.402568,-0.003 3.617187,2.34571 0.85359,1.65068 1.552735,3.47347 1.552735,4.05078 0,2.15603 -2.63079,0.9431 -4.380859,-2.01953 -2.470782,-4.18271 -3.169166,-2.96723 -1.572266,2.73633 1.57649,5.63069 9.348741,14.33398 12.800781,14.33398 1.21837,0 2.461629,0.63987 2.761719,1.42187 0.634367,1.65315 -0.736395,4.43246 -2.322266,5.30274 -2.067071,-0.54193 -4.790077,-2.17177 -7.697265,-4.58984 -0.652148,-0.54243 -1.317658,-1.13659 -1.986329,-1.75196 -0.487876,-0.84556 -1.475449,-1.85031 -2.300781,-2.22656 -4.662543,-4.72493 -9.451336,-10.83724 -13.267578,-17.01758 -4.978283,-8.06225 -7.661723,-16.4817 -8.281253,-23.27539 -0.30976,-3.39684 -0.1011,-6.3841 0.55274,-8.6875 0.65383,-2.3034 1.73021,-3.87873 3.08593,-4.67383 0.39056,-0.22903 0.81056,-0.41304 1.24415,-0.57617 0.41443,-0.0514 0.80751,-0.17288 1.14648,-0.34961 0.3946,-0.0915 0.797758,-0.16819 1.21875,-0.21484 0.503752,-0.0558 1.024853,-0.0793 1.5625,-0.0723 z m -26.06445,27.99805 c 3.54486,0.007 7.23182,1.44382 11.14648,4.08008 6.26345,4.21801 12.80985,11.55742 19.033204,20.61718 6.261651,9.11557 10.458352,15.86611 11.806641,22.22266 0.660782,3.11528 0.664876,6.17021 -0.109375,9.43945 -0.0099,0.0137 -0.01739,0.0253 -0.02734,0.0391 -1.56712,2.16831 -3.958253,6.31958 -5.314453,9.22461 -0.893781,1.91451 -1.484479,3.13119 -2.042969,3.8789 -0.818282,0.28434 -1.769971,0.32763 -2.917968,0.16797 -2.415555,-0.33594 -5.58667,-1.77361 -9.00586,-4.10351 -6.83835,-4.6598 -14.68703,-12.78698 -20.88282,-21.80665 -6.17596,-8.99079 -10.06402,-18.7279 -11.37695,-26.64843 -0.65647,-3.96027 -0.66462,-7.46509 -0.0469,-10.1543 0.29985,-1.30512 0.74329,-2.39674 1.30664,-3.28125 0.57449,-0.0815 1.2289,-0.57681 1.55468,-1.42578 0.0531,-0.13847 0.13807,-0.27961 0.23438,-0.42188 0.13103,-0.085 0.26117,-0.17372 0.39844,-0.24609 2.04182,-1.07641 4.11722,-1.58619 6.24414,-1.58203 z m -42.76172,4.71289 c -0.94929,-0.002 0.0575,7.63121 1.45117,11 2.10049,5.0773 6.32939,12.99309 6.94336,12.99609 0.34835,0.002 0.8936,0.99551 1.21094,2.20899 0.31733,1.21348 0.86312,1.92008 1.21289,1.57031 0.34977,-0.34976 -0.95484,-3.92886 -2.90039,-7.95508 -1.94556,-4.02621 -4.35275,-10.13358 -5.34766,-13.57031 -0.9949,-3.43674 -2.15131,-6.24924 -2.57031,-6.25 z m -7.23828,3 c -0.825,0 -1.5,0.675 -1.5,1.5 0,0.825 -0.83884,2.33883 -1.86524,3.36523 -1.0264,1.0264 -2.64101,4.0639 -3.58789,6.75 -2.59372,9.72021 -6.92419,22.23615 -7.33398,31.08204 -0.27651,9.11061 -1.50453,17.96503 -2.76758,19.95703 -0.90583,1.4286 -4.52689,3.20605 -10.75,5.27929 -8.74394,2.91304 -17.69531,8.04905 -17.69531,10.15235 0,0.50242 -0.56455,0.91406 -1.25586,0.91406 -10.30849,6.44511 -17.00344,16.66815 -16.95313,26.64648 9.19567,34.6002 22.52557,47.78016 44.53906,73.71485 6.08192,7.13196 18.1892,23.34224 19.80079,26.51172 0.73451,1.44455 3.592,6.22695 6.35156,10.62695 4.43066,7.0645 9.39091,16.58238 20.58398,39.5 1.74604,3.575 4.84288,11.25251 6.88086,17.0625 2.03798,5.80999 4.03355,11.09565 4.43555,11.74609 0.40199,0.65044 0.89499,1.97293 1.0957,2.9375 0.20071,0.96457 2.21656,7.37891 4.48047,14.25391 2.2639,6.875 5.17555,15.875 6.46875,20 1.2932,4.125 3.52494,11.19654 4.96094,15.71484 1.436,4.51831 2.61133,9.11719 2.61133,10.22071 0,2.46804 -4.2083,12.14359 -6.9668,16.01758 -1.11848,1.57077 -2.0332,3.40916 -2.0332,4.08593 0,1.79476 5.00586,-5.22679 6.97851,-9.78906 6.13858,-3.81271 5.77062,6.56475 7.43555,11.60937 0.23965,0.38779 -1.75049,5.18279 -4.42188,10.65626 -2.67139,5.47343 -4.67337,10.13521 -4.44921,10.35937 8.33898,-7.59438 9.02988,-14.0248 10.78515,-0.80078 0.51147,3.98967 0.0813,5.55598 -3.36328,12.25 -2.17228,4.22147 -3.6382,7.67578 -3.25586,7.67578 0.38235,0 2.14009,-1.40145 3.90625,-3.11328 1.79911,-1.74376 3.71465,-2.80035 4.35547,-2.4043 0.79431,0.49091 1.10684,5.94774 1.02344,17.86133 -0.0664,9.43553 2.42375,22.39677 2.42375,22.39677 47.350554,-1.80164 107.7314922,0.89055 152.582147,-1.36357 11.43504,-0.73401 12.775639,-1.41864 15.568359,-7.95703 0.72346,-1.69378 2.030327,-3.67311 2.904297,-4.39844 1.34104,-1.11297 1.814664,-1.02204 3.027344,0.58008 0.79032,1.04411 1.45125,2.23158 1.46875,2.64063 0.01749,0.40905 1.890079,2.09048 4.162109,3.73633 4.34831,3.1499 7.624428,3.26229 10.960938,0.375 1.39539,-1.20752 1.440021,-2.18037 0.363281,-7.91016 -2.11289,-11.2435 -0.902538,-19.94421 5.070313,-36.44336 2.05101,-5.66563 2.697031,-9.2525 2.644531,-14.66211 -0.11721,-12.07123 -3.688752,-17.26015 -16.169922,-23.48828 -3.575,-1.78393 -8.586076,-4.72989 -11.134766,-6.54688 -2.54868,-1.81698 -4.947171,-3.30273 -5.332031,-3.30273 -0.62696,0 -12.975271,-9.80086 -17.953125,-14.25 -2.06461,-1.84532 -4.580078,-2.33796 -4.580078,-0.89648 0,0.46968 1.125,2.06713 2.5,3.55078 1.375,1.48365 2.5,2.9406 2.5,3.23633 0,1.14085 9.597562,9.78729 16.669922,15.01757 4.07614,3.01445 11.106116,7.43079 15.621093,9.81446 4.51498,2.38368 9.033996,5.43353 10.041016,6.77734 3.21604,4.29164 3.298197,13.03111 0.216797,22.76563 -5.03417,15.90345 -6.196974,26.1365 -4.021484,35.36132 0.79413,3.36738 1.449031,7.11623 1.457031,8.33203 l 0.01563,2.21094 -4.205078,-2.21094 c -2.91687,-1.53307 -4.963724,-3.63576 -6.675781,-6.86132 l -2.46875,-4.65039 2.175781,-5.23243 c 1.70213,-4.09577 2.173828,-7.25331 2.173828,-14.53906 0,-5.12639 -0.44923,-9.58538 -1,-9.92578 -0.55,-0.33992 -1,-1.49301 -1,-2.56055 0,-1.06754 -0.616744,-1.93945 -1.371094,-1.93945 -1.04505,0 -1.494089,2.55903 -1.886719,10.75 -0.48934,10.20881 -0.72581,11.15274 -4.6875,18.75 -7.827,15.0097 -9.714173,17.5102 -13.589843,18.01367 -48.7075881,0.50692 -98.749523,0.39703 -150.373047,0.69922 l -0.521485,-2.35742 c -0.28679,-1.29603 -0.391742,-5.50547 -0.232421,-9.35547 0.70815,-17.11321 -6.069623,-66.09649 -11.890623,-85.93164 -1.95674,-14.30762 -7.64257,-26.44972 -12.02929,-39.06836 -3.06974,-8.8 -7.57721,-21.73725 -10.01563,-28.74805 -5.32075,-13.08375 -9.98746,-26.4816 -16.49414,-38.99414 -0.50337,-0.95805 -2.3441,-4.55805 -4.0918,-8 -6.00695,-11.83021 -19.74238,-32.93936 -26.375,-40.53515 -9.84411,-14.57926 -22.81146,-27.96229 -32.4336,-42.22266 -1.29098,-1.925 -3.50854,-4.69298 -4.92774,-6.15039 -2.50297,-2.57038 -3.87021,-4.98792 -7.55078,-13.34961 -0.96911,-2.20168 -1.97939,-7.59663 -2.24804,-12 -0.61301,-10.04776 1.80213,-17.1526 8.28515,-24.36328 6.6754,-7.42466 21.85117,-17.11954 23.7793,-15.19141 1.00431,1.00431 -1.812,8.01663 -3.71484,9.25 -0.59026,0.38259 -0.70456,1.05759 -0.25391,1.5 1.36275,1.33782 9.07177,-8.07211 12.50977,-15.26953 3.72626,-7.80086 4.99585,-13.54454 5.61914,-25.42578 0.58409,-11.13391 2.7665,-23.97621 5.38867,-31.71875 2.4921,-7.35845 2.66385,-10.28125 0.60547,-10.28125 z m 73.58007,3.10547 c 0.0187,-0.002 0.0362,0.003 0.0547,0.002 0.0304,0.0495 0.0593,0.0989 0.0898,0.14844 0.18918,0.30639 0.394363,0.61026 0.587887,0.91601 -0.0513,0.23096 -0.178318,0.46477 -0.343747,0.69141 -0.37958,-0.43424 -0.75761,-0.88176 -1.13868,-1.30078 0.23494,-0.25685 0.4987,-0.42907 0.75,-0.45703 z m 11.099614,14.79297 c 2.35684,2.61451 4.74561,4.95537 7.048828,6.87109 2.766824,2.30132 5.395413,3.99713 7.814454,4.79883 0.895015,1.15795 0.769938,2.62043 -0.578125,6.90625 -1.63967,5.21295 -3.464844,7.33294 -3.464844,4.02539 0,-0.79096 -0.404302,-1.43769 -0.910156,-1.49023 -0.0098,-0.0476 -0.01725,-0.095 -0.02734,-0.14258 -1.322038,-6.23278 -5.012672,-12.47994 -10.287109,-20.29492 0.14009,-0.15971 0.273162,-0.39225 0.404292,-0.67383 z m -18.876954,8.20312 c -3.12015,-0.0702 -4.7498,2.69825 -3.86328,7.42383 0.54579,2.90927 2.27401,5.39518 7.06445,10.16211 6.250769,6.22008 8.723556,7.31313 12.914066,5.70508 2.00328,-0.76873 2.10518,-6.48397 0.18164,-10.19336 -1.64751,-3.1771 -8.980336,-10.12343 -12.718746,-12.04883 -1.3331,-0.68658 -2.53808,-1.02541 -3.57813,-1.04883 z m -0.56055,2.11914 c 0.96347,0.0755 2.27108,1.43324 3.95118,4.08789 2.15441,3.4041 2.19361,3.69141 0.49609,3.69141 -2.57958,0 -6.59149,-4.50826 -5.81445,-6.5332 0.33572,-0.87489 0.7891,-1.29137 1.36718,-1.2461 z m 5.13868,39.90625 c -0.54375,-0.007 -1.12485,0.0529 -1.61133,0.17969 -0.97297,0.25354 -0.41953,0.47765 1.23047,0.49805 1.65,0.0204 2.44656,-0.18701 1.76953,-0.46094 -0.33852,-0.13699 -0.84492,-0.21008 -1.38867,-0.2168 z m 58.898434,24.95899 c 0.615957,-0.0993 0.669272,1.22882 -0.240235,3.80664 -1.38445,3.92396 -4.017274,17.57277 -5.083984,26.35742 -0.31724,2.6125 -1.038331,4.75 -1.601563,4.75 -2.25215,0 1.519924,-25.95233 4.652344,-32.00977 0.975323,-1.88606 1.79436,-2.82704 2.273438,-2.90429 z M -52,470.7832 c 0.70483,-0.23674 1.471021,6.65714 2.269531,20.41407 1.62835,28.05348 1.629433,28.17376 0.269531,41.27148 -1.379976,15.96422 -4.918218,24.1846 -11.708984,37.05078 -1.62166,3.08003 -4.660879,5.88875 -9.511719,8.78711 -10.852973,3.09443 -23.010143,2.98813 -29.904299,-5.62695 -8.29834,-6.83485 -14.65211,-18.57551 -20.40625,-31.2168 -3.12771,-6.87127 -6.06139,-13.98014 -8.9707,-20.79492 -0.22833,-0.27251 -0.42783,-0.69519 -0.53516,-1.25781 -0.77251,-1.79985 -1.54836,-3.57919 -2.32031,-5.3125 -0.88733,-1.24496 -1.59808,-2.78495 -1.70117,-3.73438 -1.86131,-3.85003 -3.74948,-7.75355 -5.89453,-11.41211 -0.34002,-0.30392 -0.64773,-0.71481 -0.83008,-1.23242 -0.33907,-0.9625 -1.60816,-3.1 -2.82031,-4.75 -1.21215,-1.65 -3.01264,-4.575 -4.00196,-6.5 -9.87201,-9.60422 -9.8057,-21.89626 0.58789,-4 1.08355,1.925 2.83306,4.85 3.88672,6.5 3.3243,6.71938 8.56445,12.27172 10.89844,19 0.17764,0.52264 0.43838,1.18135 0.66211,1.78711 4.42385,9.56742 8.66811,20.46236 13.31445,30.66992 1.44718,3.17931 2.9394,6.27544 4.48047,9.24219 0.39636,0.18177 0.67188,0.46616 0.67188,0.80078 0,0.12432 -0.0269,0.2415 -0.0664,0.35156 8.53817,15.08282 26.512514,36.13774 43.166016,23.98049 8.102729,-7.06796 12.294689,-14.67355 14.453125,-23.84961 3.58301,-15.4447 4.17098,-22.20261 3.63086,-41.75586 -0.853,-30.87938 -0.782121,-38.02151 0.380849,-38.41213 z m 82.123047,34.75977 c -0.06899,0.009 -0.126703,0.0351 -0.171875,0.0801 3.288917,9.33478 15.577641,21.49249 16.457031,31.52929 0.01488,0.6517 0.489298,2.4016 1.054688,3.88868 1.87873,4.94144 2.139305,1.7191 0.416015,-5.15235 -3.435549,-12.16039 -8.5486,-19.84197 -15.302734,-28.41992 -0.94689,-1.20312 -1.970166,-1.98909 -2.453125,-1.92578 z M 50.875,511.85156 c -0.486604,0.10888 0.430653,1.53399 3.039062,5.11719 3.771112,5.45875 6.336718,12.22028 8.496094,17.93359 0.53639,1.41081 1.15514,2.56641 1.375,2.56641 1.814796,-6.72878 -6.666003,-22.17989 -11.402344,-25.0293 -0.774805,-0.41466 -1.286628,-0.63738 -1.507812,-0.58789 z m -53.2597656,9.37696 c -1.6097751,-0.0465 -2.6796875,0.32409 -2.6796875,1.24023 0,0.825 0.625555,1.36646 1.390625,1.20313 5.29051,-1.12964 18.4769481,11.75693 24.8613281,24.29687 8.213144,15.28852 12.952093,33.79421 15.783203,48.48633 1.93361,10.12167 3.293286,45.01367 1.753906,45.01367 -0.56046,0 -2.228901,-0.95253 -3.707031,-2.11523 -3.33817,-2.62581 -4.190811,-1.95069 -2.238281,1.77148 3.71973,7.09101 24.58744,22.74311 37.65625,28.24414 8.10939,3.41346 16.059639,7.38631 16.630859,8.31055 0.27545,0.4457 0.48605,4.62964 0.46875,9.29883 -0.01733,4.66919 0.189095,8.49023 0.458985,8.49023 0.77894,0 2.503794,-5.07625 3.490234,-10.26953 0.76033,-4.00292 0.572262,-5.45682 -1.173828,-9.05078 -2.59175,-5.3346 -5.621327,-7.4237 -19.966797,-13.76367 -6.27427,-2.77291 -12.337206,-5.91287 -13.472656,-6.97852 -1.13545,-1.06565 -2.51335,-1.9375 -3.0625,-1.9375 -0.54915,0 -2.292247,-1.35 -3.873047,-3 -1.5808,-1.65 -3.6904,-3 -4.6875,-3 -2.15593,0 -2.457551,-3.22057 -0.457031,-4.88086 1.0363,-0.86006 2.158635,-0.58158 4.759765,1.18359 10.6878,7.25294 20.141683,10.66905 29.570313,10.68555 3.4017,0.006 7.396293,0.47221 8.876953,1.03516 2.33303,0.88702 2.624253,1.45391 2.189453,4.25 -0.27595,1.77455 -0.166374,4.12656 0.242188,5.22656 0.62209,1.67495 0.950098,1.31667 2.017578,-2.19922 2.49596,-8.22077 -1.80982,-12.82261 -12.31836,-13.16601 -3.10247,-0.10138 -8.691338,-1.1168 -12.417968,-2.25586 -7.008641,-2.14223 -18.275391,-7.75774 -18.275391,-9.10938 0,-0.42305 -0.643711,-0.76953 -1.431641,-0.76953 -1.949254,0 -2.331612,-2.0007 -2.382812,-12.5 -1.117471,-25.06325 -7.356193,-63.07794 -22.136719,-83.43555 -2.22645,-2.98412 -4.048828,-5.6955 -4.048828,-6.02343 0,-0.54065 -5.25951,-5.96784 -9,-9.28711 -3.1242619,-2.77244 -9.2788075,-4.89196 -12.8203126,-4.99414 z m -91.8710934,24.73046 c 7.500999,0.49667 11.60787,4.42145 12.99414,9.25 0.34606,1.37885 -1.565418,7.60568 -0.736328,7.92383 1.87583,0.71982 2.311878,-1.01688 3.478516,-4.19922 0.310289,-4.015 -2.056624,-6.80897 -4.607422,-10.40234 7.945217,-5.40385 9.310679,-0.44376 12.017578,1.89844 2.206693,5.91436 -0.447906,7.05381 -0.548828,10.84765 0,2.7337 -4.970413,5.90731 -9.303873,6.62838 -2.2,0.36607 -5.889877,-1.04671 -6.852377,-0.78267 -0.9625,0.26403 -1.75,-8.3e-4 -1.75,-0.58789 -3.482208,-2.12326 -14.093457,-8.79746 -12.308597,-12.94336 1.50245,-2.38608 3.136175,-7.92953 7.617191,-7.63282 z m 5.417968,12.30079 c -0.74556,0 0.414039,1.62668 0.730469,2.13867 -0.06978,1.27369 -2.960513,5.43296 0.292969,4.8789 2.13098,-0.41025 1.073112,-7.01757 -1.023438,-7.01757 z m 44.78125,18.43359 c -0.534302,-0.0434 -2.796768,1.77386 -5.25,4.24023 -3.19241,3.20951 -7.882186,6.28298 -14.253906,9.33985 -8.26986,3.9675 -10.33588,4.55485 -16,4.55468 -3.57717,-9e-5 -7.785232,-0.32467 -9.351562,-0.72265 -4.46814,-1.1353 -2.761886,1.59955 1.927734,3.08984 2.38279,0.75721 7.645072,1.11268 13.419922,0.90625 10.17149,-0.3636 14.313816,-1.88496 20.378906,-7.47851 3.46345,-3.19418 10.022391,-13.08699 9.212891,-13.89649 -0.0198,-0.0198 -0.04836,-0.0303 -0.08398,-0.0332 z M -52.875,599.61133 c -0.824013,0.0942 -2.503022,1.12951 -4.025391,2.51758 -4.76551,4.34505 -8.705092,6.77944 -13.414062,8.29297 -4.30783,1.38459 -5.26859,2.46936 -3,3.38476 2.27551,0.91819 3.311819,0.68492 8.542969,-1.92187 5.4015,-2.69168 14.239722,-11.57244 12.195312,-12.25391 -0.07982,-0.0266 -0.181112,-0.033 -0.298828,-0.0195 z m -4.996094,20.67578 c -0.06207,-0.009 -0.134958,-0.008 -0.216797,0.004 -0.54559,0.0808 -1.522456,0.63702 -2.820312,1.62695 -1.83942,1.40299 -3.86442,2.55078 -4.5,2.55078 -0.63559,0 -1.15625,0.45 -1.15625,1 0,0.55 -0.675,1 -1.5,1 -0.825,0 -1.5,0.675 -1.5,1.5 0,4.57466 11.85522,-2.65687 11.96875,-7.30078 0.0055,-0.22718 -0.08919,-0.35266 -0.275391,-0.38086 z m -147.242186,17.53125 c -0.15322,0.0122 -0.31312,0.065 -0.47656,0.16602 -0.48798,0.30156 -0.62284,1.23963 -0.29883,2.08398 0.38475,1.00267 0.9302,1.1948 1.57031,0.55469 1.00204,-1.00204 0.27759,-2.88987 -0.79492,-2.80469 z M -65.042969,669.125 c -3.025715,0.0175 -5.910701,0.11198 -7.394531,0.29688 -1.2513,0.15588 2.405265,2.98351 4.195312,3.24414 5.07516,0.73892 13.677735,-1.18019 13.677735,-3.05079 0,-0.3349 -5.435656,-0.51935 -10.478516,-0.49023 z m 11.394531,15.81641 c -0.386383,-0.0651 -2.055509,0.36978 -4.041015,1.07031 -2.26915,0.8006 -5.393016,1.45703 -6.941406,1.45703 -3.25238,0 -4.801173,1.62885 -2.195313,2.30859 3.67665,0.95905 5.41941,0.61561 9.28125,-1.82226 2.18907,-1.3819 3.980469,-2.71137 3.980469,-2.95508 0,-0.0305 -0.0288,-0.0493 -0.08398,-0.0586 z"
           id="path8121"
           inkscape:connector-curvature="0"
           sodipodi:nodetypes="csscssscssssssssssscccssssssssscccccccssccccccssssccsssscccccccssccssssssssscssssssssccsccccccccscccscssccscsscccccscccscsssccsssssccsccsccsscsccsccsscscscccsccccccccsccssscccsssssssssssssssssccssssssssssssccsssssssccsssssscccsssssccscssssccccscsscssccccccscccsscsscccccccssscccscccccccsssscscssscscccccsscssccccscssssscsssssssssssssssssssssscscssssssssssscccssccsssssscsssssssssscssssssscssscsscssccsscssssccsssscsccssscsccsscsscccsssssssscsccscccccccscssccscssssccccccssscsscssccsssccssssccssccscccssssssscssscsscssscssssccsccsssccccccsssccscsssscccccccscscsscsssccssssccsssssssssssssscsssscccsccsssssccsssssssssssssccccccsssssssscccsssccssccccssssssccccccccscsscccccsssssccssccccsccsssssssssssccscssccccccccscsccccssssscccccssccscccssccccscssccssssscsssssssssscssscscscccsccssccscsssssscsccssssccccsscsscccccscscssscsscsscccsssccsssscc" />
      </g>
    </g>
  </g>
</svg>
