<svg width="435" height="666" viewBox="0 0 435 666" fill="none" xmlns="http://www.w3.org/2000/svg">
<g id="wash_hands 1 1" clip-path="url(#clip0)">
<g id="Group" filter="url(#filter0_d)">
<path id="Vector" opacity="0.2" d="M428.405 252.235L421.934 252.213L397.117 252.138L391.605 252.127L374.888 252.084L370.757 252.062H368.924L282.716 251.825L281.346 251.814H280.041L274.8 251.793L260.002 251.76L252.862 251.739L238.043 251.696V37.066L420.855 20.921L427.327 20.349L428.405 252.235Z" fill="black"/>
<path id="Vector_2" d="M421.934 252.213V252.235L403.815 252.181L397.117 252.159L391.605 252.149L383.689 252.127L380.529 252.116L374.899 252.106L371.976 252.095H370.757L368.956 252.084H368.924L355.323 252.052L352.864 252.041L317.995 251.944L311.729 251.922L286.157 251.847L282.716 251.836H281.336C281.342 251.83 281.346 251.823 281.346 251.814H280.041L274.8 251.793L260.002 251.76V251.771L252.862 251.75L247.955 251.739H246.855L231.572 251.696V37.0664L420.855 20.349V20.9206L421.934 252.213Z" fill="#E6E6E6"/>
<path id="Vector_3" opacity="0.2" d="M326.483 16.5746C330.653 16.5746 334.033 13.1945 334.033 9.02487C334.033 4.85525 330.653 1.4751 326.483 1.4751C322.314 1.4751 318.933 4.85525 318.933 9.02487C318.933 13.1945 322.314 16.5746 326.483 16.5746Z" fill="black"/>
<path id="Vector_4" d="M322.169 16.5746C326.339 16.5746 329.719 13.1945 329.719 9.02487C329.719 4.85525 326.339 1.4751 322.169 1.4751C317.999 1.4751 314.619 4.85525 314.619 9.02487C314.619 13.1945 317.999 16.5746 322.169 16.5746Z" fill="#3F3D56"/>
<path id="Vector_5" opacity="0.2" d="M385.271 0L267.008 9.4488L267.696 18.0497L385.958 8.60091L385.271 0Z" fill="black"/>
<path id="Vector_6" d="M380.957 0L262.694 9.4488L263.381 18.0497L381.644 8.60091L380.957 0Z" fill="#E6E6E6"/>
<path id="Vector_7" opacity="0.56" d="M392.071 204.34C385.729 180.31 382.353 178.455 382.353 178.455L346.589 160.454L346.352 160.368L326.248 175.198L317.587 161.867L317.156 161.49C317.156 161.49 316.972 161.565 316.616 161.705C313.51 162.956 297.515 169.568 285.641 177.43L285.274 177.377L271.264 184.344L268.751 193.63L265.849 204.34L255.862 250.739V250.75L263.002 250.771V250.76L277.8 250.793L280.129 239.36L283.041 250.814H284.346C284.346 250.823 284.342 250.83 284.336 250.836H285.716L289.157 250.847L314.729 250.922L320.995 250.944L355.864 251.041L358.323 251.052L371.924 251.084H371.956L373.757 251.095V251.062L374.685 240.956L375.246 238.131L377.888 251.084L377.899 251.105L383.529 251.116L386.689 251.127L394.605 251.149L400.117 251.159V251.138C398.596 240.859 394.401 213.184 392.071 204.34Z" fill="#00F53F"/>
<path id="Vector_8" opacity="0.56" d="M361.029 133.109L361.043 133.158C361.026 133.161 361.022 133.144 361.029 133.109C360.886 132.617 359.08 126.802 353.909 129.794C348.513 132.917 342.064 113.31 342.064 113.31C342.064 113.31 325.82 117.781 315.904 117.096C315.231 117.048 314.571 116.889 313.95 116.626C311.68 121.327 310.919 126.615 311.772 131.766C312.625 136.916 315.05 141.677 318.715 145.395L316.965 161L325.965 175L345.965 160C345.965 160 346.218 163.818 347.037 150.742C350.912 149.011 354.289 146.335 356.86 142.959C359.43 139.583 361.111 135.615 361.748 131.42C361.343 132.343 361.06 132.942 361.029 133.109Z" fill="#FFB8B8"/>
<path id="Vector_9" opacity="0.56" d="M361.748 132.42C363.958 127.394 369.88 112.6 359.48 103.686C350.877 96.3112 320.527 89.7294 310.828 109.309C310.459 110.056 310.248 110.87 310.207 111.702C310.166 112.533 310.296 113.364 310.588 114.144C310.881 114.923 311.33 115.634 311.908 116.233C312.486 116.832 313.181 117.306 313.95 117.626C314.09 117.337 314.249 117.058 314.399 116.775C314.885 116.946 315.391 117.054 315.904 117.096C325.82 117.781 342.064 113.31 342.064 113.31C342.064 113.31 348.513 132.917 353.909 129.794C359.08 126.802 360.886 132.617 361.029 133.109C361.06 132.942 361.343 132.343 361.748 131.42C361.912 130.302 362.001 129.173 362.014 128.043C362.019 128.242 362.03 128.439 362.03 128.639C362.03 129.905 361.936 131.169 361.748 132.42Z" fill="#2F2E41"/>
<path id="Vector_10" d="M170.095 657.227C261.827 657.227 336.19 645.638 336.19 631.342C336.19 617.046 261.827 605.457 170.095 605.457C78.3633 605.457 4 617.046 4 631.342C4 645.638 78.3633 657.227 170.095 657.227Z" fill="#E6E6E6"/>
<path id="Vector_11" d="M426.248 579.033L390.117 620.859L389.448 621.635L177.645 589.279V347.686H425.709L426.248 579.033Z" fill="#3F3D56"/>
<path id="Vector_12" d="M198.757 438.826L198.596 440.977L241.737 444.212L241.899 442.061L198.757 438.826Z" fill="#E6E6E6"/>
<path id="Vector_13" d="M304.45 448.533L304.296 450.683L349.595 453.919L349.749 451.768L304.45 448.533Z" fill="#E6E6E6"/>
<path id="Vector_14" d="M389.643 415.097L177.171 402.154L177.04 404.307L274.178 410.224L275.83 604.452L277.987 604.433L276.337 410.356L389.512 417.25L389.643 415.097Z" fill="#E6E6E6"/>
<path id="Vector_15" opacity="0.2" d="M426.248 579.033L390.117 620.859V347.686H425.709L426.248 579.033Z" fill="black"/>
<path id="Vector_16" d="M192.205 352.54H172.791V339.597L224.561 329.89L227.797 323.419L430.562 328.812V347.147L390.117 361.911L363.693 361.168C363.693 361.168 323.787 394.603 276.331 391.367C228.875 388.131 192.205 352.54 192.205 352.54Z" fill="#E6E6E6"/>
<path id="Vector_17" d="M368.546 340.136L357.222 348.225L325.502 347.46C325.502 347.47 325.491 347.46 325.491 347.46H325.437L323.021 347.406H323.01L321.004 347.352L314.673 347.201L314.145 347.19L308.547 347.061L308.342 347.05L301.386 346.888L300.933 346.877L295.788 346.748L294.958 346.737L288.918 346.586L286.976 346.543L276.115 346.284L273.376 346.219L244.514 345.529C244.514 345.529 223.946 346.554 222.976 340.579C222.954 340.432 222.943 340.284 222.943 340.136C222.943 336.739 226.524 336.016 229.911 336.103C231.923 336.177 233.924 336.444 235.886 336.901L244.169 337.106L249.335 337.224L265.546 337.623L279.405 337.958L284.312 338.087L291.334 338.26L294.116 338.324L304.449 338.572L309.28 338.691L319.483 338.939L368.546 340.136Z" fill="#CCCCCC"/>
<path id="Vector_18" d="M308.148 345.529C309.339 345.529 310.305 344.563 310.305 343.372C310.305 342.181 309.339 341.215 308.148 341.215C306.957 341.215 305.991 342.181 305.991 343.372C305.991 344.563 306.957 345.529 308.148 345.529Z" fill="#3F3D56"/>
<path id="Vector_19" d="M309.227 337.979C320.544 337.979 329.719 337.014 329.719 335.822C329.719 334.631 320.544 333.665 309.227 333.665C297.909 333.665 288.734 334.631 288.734 335.822C288.734 337.014 297.909 337.979 309.227 337.979Z" fill="#CCCCCC"/>
<path id="Vector_20" d="M296.401 308.407L314.284 312.766L312.24 321.149L286.586 314.896L286.734 314.285C287.237 312.224 288.538 310.447 290.351 309.344C292.163 308.242 294.34 307.905 296.401 308.407Z" fill="#3F3D56"/>
<path id="Vector_21" d="M289.648 315.172L299.247 316.614L299.2 316.925C299.043 317.974 298.475 318.918 297.622 319.548C296.768 320.178 295.7 320.444 294.65 320.286L292.963 320.033C291.913 319.875 290.97 319.307 290.34 318.454C289.709 317.601 289.444 316.532 289.601 315.483L289.648 315.172Z" fill="#3F3D56"/>
<path id="Vector_22" opacity="0.2" d="M312.24 318.992L298.829 315.723C298.427 316.541 297.776 317.211 296.969 317.635C296.162 318.059 295.242 318.216 294.34 318.082L293.273 317.922C292.224 317.763 291.271 317.22 290.598 316.4C289.924 315.58 289.578 314.54 289.625 313.48L287.341 312.923C287.01 313.547 286.756 314.21 286.586 314.896L289.625 315.637C289.578 316.697 289.924 317.737 290.598 318.557C291.271 319.377 292.224 319.92 293.273 320.079L294.34 320.24C295.242 320.373 296.162 320.216 296.969 319.792C297.776 319.368 298.427 318.698 298.829 317.88L312.24 321.149L314.284 312.766L313.787 312.645L312.24 318.992Z" fill="black"/>
<path id="Vector_23" d="M309.979 336.901C308.909 336.901 307.851 336.683 306.869 336.261C305.887 335.839 305.001 335.221 304.265 334.446C303.529 333.67 302.959 332.753 302.589 331.749C302.219 330.746 302.057 329.678 302.113 328.61L303.295 306.162L317.855 305.623V329.024C317.855 330.059 317.651 331.083 317.255 332.039C316.86 332.994 316.279 333.862 315.548 334.594C314.817 335.325 313.948 335.905 312.993 336.301C312.037 336.697 311.013 336.901 309.979 336.901Z" fill="#3F3D56"/>
<path id="Vector_24" d="M316.776 306.162H303.664C305.937 302.713 304.519 299.178 301.336 295.603C301.154 295.396 301.035 295.14 300.994 294.867C300.953 294.594 300.991 294.315 301.105 294.064C301.219 293.812 301.402 293.599 301.635 293.449C301.867 293.299 302.137 293.22 302.413 293.22H307.41C312.583 293.22 316.776 298.049 316.776 304.005V306.162Z" fill="#3F3D56"/>
<path id="Vector_25" opacity="0.2" d="M305.65 295.603C305.468 295.396 305.349 295.14 305.308 294.867C305.267 294.594 305.305 294.315 305.419 294.064C305.533 293.812 305.717 293.599 305.949 293.449C306.181 293.299 306.451 293.22 306.727 293.22H302.413C302.137 293.22 301.867 293.299 301.635 293.449C301.402 293.599 301.219 293.812 301.105 294.064C300.991 294.315 300.953 294.594 300.994 294.867C301.035 295.14 301.154 295.396 301.336 295.603C304.519 299.178 305.937 302.713 303.664 306.162H307.978C310.252 302.713 308.833 299.178 305.65 295.603Z" fill="black"/>
<path id="Vector_26" d="M243.421 318.876L260.008 324.738C260.008 324.738 299.464 327.886 294.344 337.922C289.225 347.958 255.456 341.474 255.456 341.474L239.463 330.37L243.421 318.876Z" fill="#FFB8B8"/>
<path id="Vector_27" d="M268.242 333.665C267.138 333.667 266.077 334.093 265.278 334.854C264.48 335.616 264.004 336.656 263.95 337.759C263.709 337.537 263.435 337.353 263.139 337.214C263.954 336.66 264.554 335.844 264.843 334.902C265.131 333.96 265.089 332.948 264.723 332.033C264.358 331.118 263.692 330.355 262.834 329.87C261.976 329.385 260.979 329.208 260.006 329.367C259.034 329.526 258.145 330.012 257.487 330.745C256.828 331.478 256.439 332.413 256.385 333.397C256.33 334.381 256.613 335.353 257.186 336.155C257.759 336.956 258.589 337.537 259.538 337.803C259.169 338.155 258.889 338.589 258.721 339.07C258.552 339.55 258.499 340.064 258.566 340.569C258.634 341.074 258.82 341.556 259.109 341.975C259.398 342.394 259.782 342.739 260.23 342.982C260.678 343.225 261.177 343.358 261.687 343.371C262.196 343.384 262.701 343.277 263.161 343.057C263.62 342.838 264.022 342.513 264.332 342.109C264.643 341.705 264.853 341.233 264.946 340.733C265.411 341.289 266.009 341.719 266.684 341.982C267.359 342.246 268.09 342.335 268.808 342.241C269.527 342.147 270.21 341.873 270.795 341.445C271.379 341.017 271.846 340.448 272.153 339.791C272.459 339.134 272.595 338.411 272.547 337.688C272.499 336.964 272.27 336.265 271.88 335.654C271.49 335.043 270.952 334.541 270.316 334.193C269.68 333.845 268.967 333.664 268.242 333.665Z" fill="white"/>
<path id="Vector_28" d="M275.792 335.822C274.688 335.824 273.627 336.25 272.828 337.012C272.029 337.773 271.554 338.813 271.5 339.916C271.259 339.694 270.985 339.51 270.689 339.371C271.503 338.817 272.104 338.001 272.392 337.059C272.68 336.117 272.638 335.105 272.273 334.19C271.908 333.275 271.241 332.512 270.384 332.027C269.526 331.542 268.528 331.365 267.556 331.524C266.584 331.683 265.695 332.169 265.036 332.902C264.378 333.635 263.989 334.57 263.935 335.554C263.88 336.538 264.163 337.511 264.736 338.312C265.309 339.113 266.139 339.695 267.088 339.96C266.719 340.312 266.439 340.746 266.27 341.227C266.101 341.707 266.049 342.221 266.116 342.726C266.184 343.231 266.37 343.713 266.659 344.132C266.948 344.551 267.332 344.896 267.78 345.139C268.228 345.382 268.727 345.515 269.236 345.528C269.746 345.541 270.251 345.434 270.71 345.214C271.17 344.995 271.572 344.67 271.882 344.266C272.192 343.862 272.403 343.391 272.496 342.89C272.961 343.446 273.558 343.876 274.234 344.139C274.909 344.403 275.639 344.492 276.358 344.398C277.077 344.304 277.76 344.03 278.344 343.602C278.929 343.174 279.396 342.605 279.702 341.948C280.009 341.291 280.144 340.568 280.097 339.845C280.049 339.121 279.819 338.422 279.429 337.811C279.039 337.2 278.502 336.698 277.866 336.35C277.23 336.002 276.517 335.821 275.792 335.822Z" fill="white"/>
<path id="Vector_29" d="M255.494 318.404L240.481 343.199L208.912 322.006L172.651 297.674L150.789 240.274L128.56 199.57L156.419 191.363C156.419 191.363 166.007 191.729 178.4 214.476C190.781 237.233 201.815 276.621 201.815 276.621L216.623 288.151L255.494 318.404Z" fill="#00F53F"/>
<path id="Vector_30" opacity="0.2" d="M255.494 318.404L240.481 343.199L208.912 322.006L172.651 297.674L150.789 240.274L128.56 199.57L156.419 191.363C156.419 191.363 166.007 191.729 178.4 214.476C190.781 237.233 201.815 276.621 201.815 276.621L216.623 288.151L255.494 318.404Z" fill="black"/>
<path id="Vector_31" d="M325.437 347.46L286.976 346.543L283.924 343.081L281.767 340.632L279.405 337.958L276.784 334.992L281.249 328.068L283.374 324.767L291.981 330.419L298.085 334.42C298.085 334.42 303.198 336.124 309.281 338.691C314.932 341.086 321.436 344.235 325.437 347.46Z" fill="#FFB8B8"/>
<path id="Vector_32" d="M176.579 149.85C191.144 149.85 202.951 138.043 202.951 123.477C202.951 108.912 191.144 97.1047 176.579 97.1047C162.014 97.1047 150.206 108.912 150.206 123.477C150.206 138.043 162.014 149.85 176.579 149.85Z" fill="#FFB8B8"/>
<path id="Vector_33" d="M156.14 130.73L153.503 168.97L186.469 172.926C186.469 172.926 186.469 141.279 189.106 137.323C191.743 133.367 156.14 130.73 156.14 130.73Z" fill="#FFB8B8"/>
<path id="Vector_34" d="M229.324 180.179L186.623 162.096C186.623 162.096 166.225 146.356 154.26 157.993L148.888 165.674C148.888 165.674 116.168 183.264 116.168 197.769L119.878 271.164C119.878 271.164 109.329 312.042 125.152 314.679L210.863 322.591C210.863 322.591 222.731 308.086 212.182 289.625L216.138 246.11L229.324 180.179Z" fill="#00F53F"/>
<path id="Vector_35" d="M200.314 181.497L229.324 180.179C229.324 180.179 231.45 182.422 238.043 207.476C244.636 232.53 253.059 273.801 253.059 273.801L295.206 327.194L274.713 347.686L219.708 287.288L212.182 226.331L200.314 181.497Z" fill="#00F53F"/>
<path id="Vector_36" d="M214.819 319.954L120.014 311.612C120.014 311.612 110.647 371.38 111.966 395.116C113.284 418.851 114.603 455.773 114.603 455.773L104.054 616.646L144.932 611.371L150.206 478.189L167.348 405.665L187.128 497.969L200.314 616.646L235.917 612.69L224.05 468.959C224.05 468.959 234.599 339.733 214.819 319.954Z" fill="#2F2E41"/>
<path id="Vector_37" d="M228.005 606.097L239.873 610.053C239.873 610.053 264.927 603.459 258.334 620.602C251.741 637.744 233.28 635.107 233.28 635.107C233.28 635.107 210.863 652.249 201.633 639.063L206.907 611.371L228.005 606.097Z" fill="#2F2E41"/>
<path id="Vector_38" d="M131.745 606.097L143.613 610.053C143.613 610.053 168.667 603.459 162.074 620.602C155.481 637.744 137.02 635.107 137.02 635.107C137.02 635.107 114.603 652.249 105.373 639.063L110.647 611.371L131.745 606.097Z" fill="#2F2E41"/>
<path id="Vector_39" d="M156.14 146.553C156.14 146.553 128.449 126.774 142.954 103.039C153.016 86.5723 173.868 87.8757 185.696 90.2185C188.882 90.8066 191.878 92.1609 194.425 94.1646C196.971 96.1683 198.993 98.7612 200.314 101.72C202.292 106.335 202.292 110.95 194.38 110.95C178.557 110.95 186.468 122.818 186.468 122.818C186.468 122.818 175.919 125.455 178.557 134.686C181.194 143.916 156.14 146.553 156.14 146.553Z" fill="#2F2E41"/>
<g id="foam">
<path id="Vector_40" d="M324.326 347.686C326.113 347.686 327.562 346.238 327.562 344.451C327.562 342.664 326.113 341.215 324.326 341.215C322.539 341.215 321.091 342.664 321.091 344.451C321.091 346.238 322.539 347.686 324.326 347.686Z" fill="white"/>
<path id="Vector_41" d="M321.091 342.293C321.092 341.65 320.948 341.014 320.67 340.433C320.392 339.852 319.986 339.342 319.484 338.939C318.717 338.321 317.762 337.982 316.776 337.979C316.722 337.979 316.679 337.99 316.625 337.99C316.408 337.126 315.927 336.351 315.249 335.772C314.571 335.194 313.73 334.84 312.843 334.761C311.955 334.681 311.065 334.88 310.295 335.329C309.526 335.778 308.915 336.456 308.547 337.267C307.863 336.908 307.073 336.809 306.322 336.987C305.57 337.166 304.909 337.61 304.459 338.238C301.284 337.833 298.174 337.021 295.206 335.822C294.396 335.821 293.603 336.05 292.917 336.481C292.232 336.913 291.683 337.529 291.334 338.26C291.04 338.841 290.888 339.485 290.891 340.136C290.895 340.913 291.111 341.674 291.517 342.337C290.747 342.445 290.041 342.827 289.53 343.413C289.018 344 288.736 344.751 288.734 345.529C288.734 345.889 288.796 346.247 288.918 346.586L294.958 346.737C295.041 346.54 295.103 346.333 295.141 346.122C295.335 346.352 295.552 346.562 295.788 346.748L300.933 346.877L301.224 346.651C301.272 346.734 301.326 346.813 301.386 346.888L308.342 347.05C308.385 347.002 308.425 346.952 308.461 346.899C308.485 346.955 308.514 347.009 308.547 347.061L314.145 347.19C314.369 346.821 314.516 346.41 314.576 345.982C314.606 346.004 314.639 346.022 314.673 346.036C314.639 346.225 314.621 346.416 314.619 346.608C314.621 346.806 314.639 347.005 314.673 347.201L321.004 347.352C321.061 347.108 321.09 346.858 321.091 346.608C321.086 345.888 320.843 345.19 320.4 344.623C320.85 343.929 321.09 343.12 321.091 342.293ZM309.539 342.207C309.354 342.432 309.14 342.632 308.903 342.8C308.968 342.962 309 343.135 309.054 343.297C309.326 343.006 309.652 342.772 310.014 342.606C309.846 342.485 309.688 342.352 309.539 342.207Z" fill="white"/>
<path id="Vector_42" d="M353.447 348.765C355.234 348.765 356.682 347.316 356.682 345.529C356.682 343.742 355.234 342.293 353.447 342.293C351.66 342.293 350.211 343.742 350.211 345.529C350.211 347.316 351.66 348.765 353.447 348.765Z" fill="white"/>
<path id="Vector_43" d="M350.211 343.372C350.213 342.728 350.069 342.092 349.791 341.511C349.512 340.931 349.107 340.42 348.604 340.018C347.837 339.399 346.882 339.061 345.897 339.058C345.843 339.058 345.8 339.069 345.746 339.069C345.528 338.205 345.047 337.429 344.37 336.851C343.692 336.272 342.851 335.919 341.963 335.839C341.076 335.76 340.186 335.959 339.416 336.408C338.646 336.857 338.035 337.534 337.668 338.346C336.984 337.987 336.194 337.887 335.442 338.066C334.691 338.244 334.029 338.689 333.58 339.317C330.405 338.912 327.294 338.1 324.326 336.901C323.517 336.9 322.723 337.128 322.038 337.56C321.353 337.991 320.804 338.608 320.454 339.338C320.16 339.92 320.009 340.563 320.012 341.215C320.016 341.992 320.232 342.753 320.638 343.415C319.867 343.523 319.161 343.905 318.65 344.492C318.139 345.078 317.857 345.83 317.855 346.608C317.854 346.968 317.916 347.326 318.038 347.665L324.078 347.816C324.162 347.618 324.223 347.412 324.261 347.201C324.455 347.431 324.672 347.64 324.909 347.826L330.053 347.956L330.344 347.729C330.392 347.812 330.446 347.892 330.506 347.967L337.463 348.128C337.506 348.081 337.545 348.03 337.581 347.977C337.606 348.033 337.635 348.088 337.668 348.139L343.265 348.269C343.49 347.899 343.636 347.488 343.697 347.061C343.727 347.083 343.759 347.101 343.794 347.114C343.76 347.303 343.742 347.494 343.74 347.686C343.741 347.885 343.759 348.083 343.794 348.279L350.125 348.43C350.181 348.186 350.21 347.937 350.211 347.686C350.207 346.966 349.964 346.269 349.521 345.702C349.971 345.008 350.211 344.199 350.211 343.372ZM338.66 343.286C338.475 343.511 338.261 343.71 338.024 343.879C338.088 344.041 338.121 344.213 338.175 344.375C338.447 344.085 338.773 343.851 339.135 343.685C338.967 343.564 338.808 343.43 338.66 343.286Z" fill="white"/>
<path id="Vector_44" d="M306.8 346.608C308.14 346.608 309.227 345.521 309.227 344.181C309.227 342.841 308.14 341.754 306.8 341.754C305.46 341.754 304.373 342.841 304.373 344.181C304.373 345.521 305.46 346.608 306.8 346.608Z" fill="white"/>
<path id="Vector_45" d="M304.373 342.563C304.374 342.08 304.266 341.603 304.058 341.168C303.849 340.732 303.545 340.349 303.168 340.047C302.593 339.584 301.876 339.33 301.138 339.327C301.097 339.327 301.065 339.336 301.024 339.336C300.861 338.687 300.5 338.106 299.992 337.672C299.484 337.238 298.853 336.973 298.187 336.914C297.522 336.854 296.854 337.003 296.277 337.34C295.699 337.677 295.241 338.185 294.966 338.794C294.453 338.524 293.86 338.45 293.296 338.583C292.733 338.717 292.237 339.05 291.9 339.522C289.518 339.218 287.186 338.609 284.959 337.71C284.352 337.709 283.757 337.88 283.243 338.204C282.729 338.527 282.317 338.99 282.055 339.538C281.835 339.974 281.721 340.456 281.724 340.945C281.727 341.528 281.889 342.099 282.193 342.595C281.615 342.676 281.086 342.963 280.702 343.403C280.319 343.843 280.107 344.406 280.106 344.99C280.106 345.26 280.152 345.528 280.243 345.782L284.773 345.896C284.836 345.748 284.882 345.593 284.911 345.435C285.056 345.607 285.219 345.764 285.396 345.904L289.255 346.001L289.473 345.831C289.509 345.893 289.549 345.953 289.594 346.009L294.812 346.13C294.844 346.095 294.874 346.057 294.901 346.017C294.919 346.059 294.941 346.1 294.966 346.138L299.164 346.236C299.332 345.959 299.442 345.65 299.487 345.329C299.51 345.346 299.534 345.36 299.56 345.37C299.535 345.511 299.521 345.655 299.52 345.799C299.521 345.948 299.534 346.097 299.56 346.244L304.308 346.357C304.351 346.174 304.373 345.987 304.373 345.799C304.37 345.259 304.188 344.735 303.855 344.31C304.193 343.79 304.373 343.183 304.373 342.563ZM295.71 342.498C295.571 342.667 295.411 342.817 295.233 342.943C295.281 343.065 295.305 343.194 295.346 343.315C295.55 343.098 295.794 342.922 296.066 342.798C295.94 342.707 295.821 342.607 295.71 342.498Z" fill="white"/>
<path id="Vector_46" d="M272.287 346.608C273.627 346.608 274.713 345.521 274.713 344.181C274.713 342.841 273.627 341.754 272.287 341.754C270.946 341.754 269.86 342.841 269.86 344.181C269.86 345.521 270.946 346.608 272.287 346.608Z" fill="white"/>
<path id="Vector_47" d="M269.86 342.563C269.861 342.08 269.753 341.603 269.545 341.168C269.336 340.732 269.032 340.349 268.655 340.047C268.079 339.584 267.363 339.33 266.624 339.327C266.584 339.327 266.551 339.336 266.511 339.336C266.348 338.687 265.987 338.106 265.479 337.672C264.97 337.238 264.34 336.973 263.674 336.914C263.008 336.854 262.341 337.003 261.763 337.34C261.186 337.677 260.728 338.185 260.452 338.794C259.94 338.524 259.347 338.45 258.783 338.583C258.22 338.717 257.724 339.05 257.387 339.522C255.005 339.218 252.672 338.609 250.446 337.71C249.839 337.709 249.244 337.88 248.73 338.204C248.216 338.527 247.804 338.99 247.542 339.538C247.322 339.974 247.208 340.456 247.211 340.945C247.213 341.528 247.376 342.099 247.68 342.595C247.102 342.676 246.573 342.963 246.189 343.403C245.806 343.843 245.594 344.406 245.593 344.99C245.592 345.26 245.639 345.528 245.73 345.782L250.26 345.896C250.323 345.748 250.369 345.593 250.398 345.435C250.543 345.607 250.706 345.764 250.883 345.904L254.741 346.001L254.96 345.831C254.996 345.893 255.036 345.953 255.081 346.009L260.299 346.13C260.331 346.095 260.361 346.057 260.388 346.017C260.406 346.059 260.428 346.1 260.452 346.138L264.651 346.236C264.819 345.959 264.929 345.65 264.974 345.329C264.997 345.346 265.021 345.36 265.047 345.37C265.021 345.511 265.008 345.655 265.006 345.799C265.008 345.948 265.021 346.097 265.047 346.244L269.795 346.357C269.838 346.174 269.859 345.987 269.86 345.799C269.857 345.259 269.675 344.735 269.342 344.31C269.68 343.79 269.86 343.183 269.86 342.563ZM261.197 342.498C261.058 342.667 260.897 342.817 260.719 342.943C260.768 343.065 260.792 343.194 260.833 343.315C261.037 343.098 261.281 342.922 261.552 342.798C261.427 342.707 261.308 342.607 261.197 342.498Z" fill="white"/>
</g>
<path id="Vector_48" d="M385.533 311.49V305.019H380.141V306.097C379.545 306.097 379.062 306.822 379.062 307.715C379.062 308.609 379.545 309.333 380.141 309.333V311.49H375.826V333.061H389.847V311.49H385.533Z" fill="#3F3D56"/>
</g>
</g>
<defs>
<filter id="filter0_d" x="0" y="0" width="434.562" height="665.227" filterUnits="userSpaceOnUse" color-interpolation-filters="sRGB">
<feFlood flood-opacity="0" result="BackgroundImageFix"/>
<feColorMatrix in="SourceAlpha" type="matrix" values="0 0 0 0 0 0 0 0 0 0 0 0 0 0 0 0 0 0 127 0"/>
<feOffset dy="4"/>
<feGaussianBlur stdDeviation="2"/>
<feColorMatrix type="matrix" values="0 0 0 0 0 0 0 0 0 0 0 0 0 0 0 0 0 0 0.25 0"/>
<feBlend mode="normal" in2="BackgroundImageFix" result="effect1_dropShadow"/>
<feBlend mode="normal" in="SourceGraphic" in2="effect1_dropShadow" result="shape"/>
</filter>
<clipPath id="clip0">
<rect width="435" height="666" fill="white"/>
</clipPath>
</defs>
</svg>
